<?xml version="1.0" encoding="UTF-8"?><!-- Generator: Adobe Illustrator 28.3.0, SVG Export Plug-In . SVG Version: 6.00 Build 0)  --><svg xmlns="http://www.w3.org/2000/svg" xmlns:xlink="http://www.w3.org/1999/xlink" xmlns:x="http://ns.adobe.com/Extensibility/1.0/" xmlns:graph="http://ns.adobe.com/Graphs/1.0/" xmlns:i="http://ns.adobe.com/AdobeIllustrator/10.0/" contentScriptType="text/ecmascript" zoomAndPan="magnify" contentStyleType="text/css" enable-background="new 0 0 1132.2 1460.56" version="1.1" xml:space="preserve" width="4528.8px" fill="#000000 icc-named-color(ASGCOLORS, BLACK)" preserveAspectRatio="xMidYMid meet" viewBox="0 0 1132.2 1460.56" height="5842.24px" x="0px" y="0px"><defs fill="#000000 icc-named-color(ASGCOLORS, BLACK)"><style fill="#000000 icc-named-color(ASGCOLORS, BLACK)" type="text/css" xml:space="preserve">@import url(http://localhost:8080/custom-fonts/font.css);</style><color-profile fill="#000000 icc-named-color(ASGCOLORS, BLACK)" rendering-intent="auto" xmlns:xlink="http://www.w3.org/1999/xlink" xlink:href="http://localhost:8080/ASGCOLORS.icc" xlink:type="simple" xlink:actuate="onLoad" xlink:show="other" name="ASGCOLORS"/></defs>
<switch fill="#000000 icc-named-color(ASGCOLORS, BLACK)">
	<foreignObject fill="#000000 icc-named-color(ASGCOLORS, BLACK)" width="1" x="0" height="1" requiredExtensions="http://ns.adobe.com/AdobeIllustrator/10.0/" y="0">
		<i:aipgfRef fill="#000000 icc-named-color(ASGCOLORS, BLACK)" xlink:href="#adobe_illustrator_pgf">
		</i:aipgfRef>
	</foreignObject>
	<g fill="#000000 icc-named-color(ASGCOLORS, BLACK)" i:extraneous="self">
		
		
		
		
		
		
		
		
		
		
		
		
		
		
		
		
		
		
		
		
		
		
		
		
		
		
		
		
		
		<g fill="#000000 icc-named-color(ASGCOLORS, BLACK)" id="branding" style="display:block;" display="block">
		</g>
		<g fill="#000000 icc-named-color(ASGCOLORS, BLACK)" id="text_sleeve" style="display:block;" display="block">
			
			
		</g>
		<g fill="#000000 icc-named-color(ASGCOLORS, BLACK)" id="text_back" style="display:block;" display="block">
			
			
			
		</g>
		<g fill="#000000 icc-named-color(ASGCOLORS, BLACK)" id="text_front" style="display:block;" display="block">
			
			
			
			
			
		</g>
		<g fill="#000000 icc-named-color(ASGCOLORS, BLACK)" id="mascots" style="display:block;" display="block">
			<g fill="#000000 icc-named-color(ASGCOLORS, BLACK)" id="m40">
				
					
				<path fill="none" d="M0,0"/>
			</g>
			<g fill="#000000 icc-named-color(ASGCOLORS, BLACK)" id="m39">
				
					
				<path fill="none" d="M0,0"/>
			</g>
			<g fill="#000000 icc-named-color(ASGCOLORS, BLACK)" id="m12_00000009561954285184347710000007112762651373349820_">
				
					
			</g>
			<g fill="#000000 icc-named-color(ASGCOLORS, BLACK)" id="x1_00000035510295339072360390000016365736887521646269_">
				
					
			</g>
			<g fill="#000000 icc-named-color(ASGCOLORS, BLACK)" id="m7_00000087403022426462560080000010088934843498587837_">
				
					
			</g>
			<g fill="#000000 icc-named-color(ASGCOLORS, BLACK)" id="m28_00000039128939094848995280000013485498886095477943_">
				
					
			</g>
			<g fill="#000000 icc-named-color(ASGCOLORS, BLACK)" id="m29_00000083768019933088791520000003467758558359438483_">
				
					
			</g>
		</g>
		<g fill="#000000 icc-named-color(ASGCOLORS, BLACK)" id="outlines" style="display:block;" display="block">
			<path fill="#6D6E71 icc-named-color(ASGCOLORS, LASER)" d="M369.15,1081.61v117.46l2.12,2.12l-2.12,2.12v105.99H280.6l-2.12,2.12l-2.13-2.12H162.77l-1.46-12.02     l5.78-1.52l3.44-0.91l3.22-1.03l3.17-1.19l3.1-1.35l2.66-1.32l0.81-2.89l2.89,0.81l2.49-1.57l2.77-1.95l2.67-2.08l2.56-2.22     l2.45-2.35l2.33-2.47l2.2-2.59l2.07-2.69l1.93-2.8l1.82-2.95l1.92-3.44l1.8-3.59l1.64-3.67l1.49-3.73l1.33-3.8l1.16-3.85     l0.99-3.9l0.83-3.94l0.66-3.97l0.49-3.99l0.32-4.01l0.14-4.02l-0.03-4.03l-0.2-4.02l-0.37-4.01l-0.45-3.3l-2.44-1.75l1.75-2.44     l-0.14-0.65l-0.57-1.82l-0.71-1.77l-0.82-1.64l-0.96-1.57l-1.06-1.46l-2.25-2.58l-0.78-0.78l-0.85-0.75l-0.92-0.72l-1.58-1.11     l-1.12-0.72l-6.79,0.76l-0.93-8.41l-4.55-41.04l-2.35-1.88l1.88-2.35l-4.55-41.04l-0.76-6.89l6.79-0.77H369.15 M371.15,1079.61     h-2H197.68h-0.11l-0.11,0.01l-6.79,0.77l-1.98,0.22l0.22,1.98l0.76,6.89l4.46,40.21l-1.36,1.7l-1.25,1.56l1.56,1.25l1.7,1.36     l4.46,40.21l0.94,8.42l0.22,1.99l1.99-0.22l6.09-0.68l0.49,0.31l1.5,1.05l0.83,0.65l0.76,0.67l0.69,0.69l2.15,2.46l0.96,1.32     l0.87,1.43l0.75,1.49l0.65,1.62l0.43,1.38l-1.21,1.68l-1.17,1.62l1.63,1.17l1.74,1.25l0.33,2.41l0.36,3.92l0.2,3.93l0.03,3.94     l-0.14,3.93l-0.31,3.93l-0.48,3.91l-0.64,3.88l-0.81,3.85l-0.97,3.82l-1.14,3.77l-1.3,3.72l-1.46,3.66l-1.61,3.59l-1.76,3.52     l-1.87,3.36l-1.77,2.87l-1.87,2.71l-2.01,2.61l-2.14,2.51l-2.26,2.39l-2.38,2.28l-2.49,2.15l-2.59,2.02l-2.69,1.89l-1.69,1.07     l-2.04-0.57l-1.93-0.54l-0.54,1.93l-0.57,2.04l-1.82,0.9l-3.01,1.31l-3.07,1.15l-3.13,1l-3.39,0.89l-5.78,1.52l-1.69,0.44     l0.21,1.73l1.46,12.02l0.21,1.76h1.77h112.74l1.54,1.54l1.41,1.41l1.41-1.41l1.54-1.54h87.72h2v-2v-105.16l1.54-1.54l1.41-1.41     l-1.41-1.41l-1.54-1.54v-116.63V1079.61L371.15,1079.61z"/>
			<path fill="#6D6E71 icc-named-color(ASGCOLORS, LASER)" d="M579.28,1081.61l6.79,0.77l-0.76,6.89l-4.55,41.04l1.88,2.35l-2.35,1.88l-4.55,41.04l-0.93,8.41     l-6.79-0.76l-1.12,0.72l-1.58,1.11l-0.92,0.72l-0.85,0.75l-0.78,0.78l-2.25,2.58l-1.06,1.46l-0.96,1.57l-0.82,1.64l-0.71,1.77     l-0.57,1.82l-0.15,0.65l1.76,2.44l-2.44,1.75l-0.45,3.3l-0.37,4.01l-0.2,4.02l-0.03,4.03l0.15,4.02l0.32,4.01l0.49,3.99     l0.66,3.97l0.83,3.94l0.99,3.9l1.16,3.85l1.33,3.8l1.49,3.73l1.65,3.67l1.8,3.59l1.92,3.44l1.82,2.95l1.93,2.8l2.07,2.69     l2.2,2.59l2.33,2.47l2.45,2.35l2.56,2.22l2.67,2.08l2.77,1.95l2.48,1.57l2.89-0.81l0.81,2.89l2.66,1.32l3.1,1.35l3.17,1.19     l3.22,1.03l3.43,0.91l5.78,1.52l-1.46,12.02H500.61l-2.13,2.12l-2.12-2.12h-88.55v-105.99l-2.12-2.12l2.12-2.12v-117.46H579.28      M579.39,1079.61h-0.11H407.81h-2v2v116.63l-1.54,1.54l-1.41,1.41l1.41,1.41l1.54,1.54v105.16v2h2h87.72l1.54,1.54l1.41,1.41     l1.41-1.41l1.54-1.54h112.74h1.77l0.21-1.76l1.46-12.02l0.21-1.73l-1.69-0.44l-5.78-1.52l-3.39-0.89l-3.13-1l-3.07-1.15     l-3.01-1.31l-1.82-0.9l-0.57-2.04l-0.54-1.93l-1.93,0.54l-2.04,0.57l-1.69-1.07l-2.69-1.89l-2.59-2.02l-2.49-2.15l-2.38-2.28     l-2.26-2.39l-2.14-2.51l-2.01-2.61l-1.87-2.71l-1.77-2.87l-1.87-3.37l-1.76-3.51l-1.61-3.59l-1.46-3.66l-1.3-3.72l-1.14-3.77     l-0.97-3.81l-0.81-3.85l-0.64-3.88l-0.48-3.91l-0.31-3.93l-0.14-3.93l0.03-3.94l0.2-3.93l0.36-3.92l0.33-2.41l1.74-1.25     l1.63-1.17l-1.17-1.62l-1.21-1.68l0.43-1.39l0.65-1.62l0.75-1.49l0.87-1.43l0.96-1.32l2.15-2.46l0.69-0.69l0.76-0.67l0.83-0.65     l1.5-1.05l0.49-0.31l6.09,0.68l1.99,0.22l0.22-1.99l0.93-8.42l4.46-40.21l1.7-1.36l1.56-1.25l-1.25-1.56l-1.36-1.7l4.46-40.21     l0.76-6.89l0.22-1.98l-1.98-0.22l-6.79-0.77L579.39,1079.61L579.39,1079.61z"/>
			<path fill="#6D6E71 icc-named-color(ASGCOLORS, LASER)" d="M298.24,587.42l2.12,2.12h107.47l0.38,0.01l0.38,0.03l3.61,0.41l0.08,0.01l0.08,0.01l3.6,0.49l0.08,0.01     l0.08,0.01l3.59,0.58l0.08,0.01l0.08,0.01l3.57,0.67l0.08,0.01l0.08,0.02l3.56,0.75l0.08,0.02l0.08,0.02l3.54,0.83l0.08,0.02     l0.08,0.02l3.52,0.92l0.11,0.03l0.11,0.03l3.49,1.04l5.86,1.74l5.96,1.91l5.89,1.97l5.9,2.07l5.79,2.12l5.8,2.22l5.77,2.3     l5.74,2.38l0.14,0.06l0.14,0.06l1.48,0.69l2.83-1.02l1.02,2.82l4.41,2.07l2.83-1.02l1.02,2.82l16.04,7.51l54.75,26.86l5.59,2.74     l-2.19,5.86l-6.61,17.75l-3.95,13.07l-4.16,13.31l-4.29,13.27l-4.45,13.29l-4.6,13.3l-3.4,9.54l1.29,2.72l-2.72,1.29l-4.8,13.05     l-5.04,13.22l-2.94,7.72l-3.11,7.78l-3.21,7.72l-3.33,7.71l-3.4,7.58l-3.52,7.58l-3.62,7.53l-3.73,7.48l-0.06,0.11l-0.06,0.11     l-23.25,42.53l0.84,2.88l-2.88,0.84l-2.37,4.31l0.84,2.89l-2.88,0.84l-17.16,31.27l-6.83,12.34l-6.9,12.31l-2.28,4.17l-2.18,4.21     l-2.08,4.26l-1.98,4.3l-1.87,4.35l-1.77,4.4l-1.66,4.44l-1.55,4.46l-1.37,4.28l-1.26,4.29l-1.15,4.33l-1.05,4.36l-0.93,4.38     l-0.83,4.4l-0.71,4.42l-0.28,2.06l1.09,1.77l2.44,3.74l2.54,3.67l2.63,3.61l2.72,3.54l0.05,0.07l-14.89,3.1l-8.71,1.81     l-0.24,0.05l-0.24,0.04l-8.76,1.58l-0.24,0.04l-0.24,0.04l-8.8,1.34l-0.24,0.04l-0.24,0.03l-8.82,1.1l-0.21,0.02l-0.21,0.02     l-11.85,1.2l-0.18,0.02l-0.18,0.01l-11.88,0.96l-0.18,0.02l-0.18,0.01l-11.89,0.72l-0.18,0.01l-0.18,0.01l-11.9,0.48l-0.36,0.01     l-0.36,0.01h-63.66l-0.36-0.01l-0.36-0.01l-11.9-0.48l-0.18-0.01l-0.18-0.01l-11.89-0.72l-0.18-0.01l-0.18-0.02l-11.88-0.96     l-0.18-0.01l-0.18-0.02l-11.86-1.2l-0.21-0.02l-0.21-0.02l-8.83-1.1l-0.24-0.03l-0.24-0.04l-8.79-1.34l-0.24-0.04l-0.24-0.04     l-8.76-1.58l-0.24-0.05l-0.24-0.05l-8.71-1.81l-14.9-3.11l0.06-0.07l2.72-3.54l2.63-3.61l2.54-3.67l2.45-3.74l1.09-1.77     l-0.28-2.06l-0.71-4.42l-0.83-4.4l-0.93-4.38l-1.04-4.35l-1.15-4.33l-1.26-4.29l-1.37-4.28l-1.55-4.46l-1.66-4.44l-1.77-4.4     l-1.87-4.35l-1.97-4.3l-2.08-4.26l-2.18-4.21l-2.28-4.17l-6.9-12.31l-6.83-12.34l-23.47-42.76l-23.39-42.79l-0.06-0.11     l-0.06-0.11l-3.69-7.39l-3.62-7.53l-3.52-7.58l-3.44-7.67l-3.3-7.63l-3.21-7.72l-3.1-7.76l-2.98-7.83l-5.01-13.15L56.25,759     l-4.75-13.32l-4.6-13.3l-4.45-13.29l-4.29-13.27L34,692.52l-3.95-13.07l-6.61-17.75l-2.18-5.86l5.59-2.74l54.75-26.86l16.04-7.52     l1.02-2.82l2.83,1.02l9.74-4.56l0.14-0.07l0.14-0.06l5.65-2.34l5.77-2.3l5.8-2.22l5.88-2.16l5.81-2.04l5.89-1.97l5.92-1.9l6-1.78     l3.49-1.04l0.12-0.03l0.11-0.03l3.52-0.91l0.15-0.04l3.54-0.83l0.08-0.02l0.08-0.02l3.56-0.75l0.08-0.02l0.08-0.01l3.57-0.66     l0.08-0.01l0.08-0.01l3.59-0.58l0.08-0.01l0.08-0.01l3.6-0.49l0.08-0.01l0.08-0.01l3.61-0.41l0.38-0.03l0.38-0.01h107.47     L298.24,587.42 M298.24,584.6l-1.41,1.41l-1.54,1.54H188.64h-0.03l-0.03,0l-0.38,0.01l-0.05,0l-0.05,0l-0.38,0.03l-0.03,0     l-0.03,0l-3.61,0.41l-0.02,0l-0.02,0l-0.08,0.01l-0.07,0.01l-0.01,0l-0.01,0l-3.6,0.49l-0.02,0l-0.02,0l-0.08,0.01l-0.08,0.01     l-3.59,0.58l-0.08,0.01l-0.03,0l-0.03,0.01l-0.08,0.01l-3.56,0.66l-0.08,0.01l-0.01,0l-0.01,0l-0.08,0.02l-0.01,0l-0.01,0     l-3.56,0.75l-0.01,0l-0.01,0l-0.08,0.02l-0.08,0.02l-0.01,0l-0.01,0l-3.54,0.83l-0.02,0.01l-0.02,0.01l-0.15,0.04l-3.52,0.91     l-0.12,0.03l-0.02,0l-0.02,0.01l-0.12,0.03l-0.01,0l-0.01,0l-3.49,1.04l-6,1.78l-0.02,0.01l-0.02,0.01l-5.91,1.9l-0.01,0l-0.01,0     l-5.89,1.97l-0.01,0l-0.01,0l-5.81,2.04l-0.01,0l-0.01,0l-5.88,2.16l-0.01,0l-0.01,0.01l-5.8,2.22l-0.01,0l-0.01,0.01l-5.77,2.3     l-0.01,0.01l-0.01,0.01l-5.65,2.34l-0.01,0l-0.01,0l-0.14,0.06l-0.03,0.01l-0.03,0.01l-0.14,0.07l-9,4.21L99.34,614l-1.88-0.68     l-0.68,1.88l-0.74,2.05l-15.29,7.16l-0.02,0.01l-0.02,0.01l-54.75,26.86l-5.59,2.74l-1.62,0.8l0.63,1.7l2.18,5.86l6.59,17.69     l3.93,13.01l0,0.01l0,0.01l4.16,13.31l0,0.01l0,0.01l4.29,13.27l0,0.01l0,0.01l4.45,13.29l0,0.01l0,0.01l4.6,13.3l0,0.01l0,0.01     l4.75,13.32l0,0.01l0,0.01l4.91,13.34l0,0.01l0,0.01l5.01,13.15l2.98,7.83l0.01,0.02l0.01,0.02l3.1,7.76l0.01,0.01l0.01,0.01     l3.21,7.72l0.01,0.01l0.01,0.01l3.3,7.63l0.01,0.01l0.01,0.01l3.44,7.67l0.01,0.01l0.01,0.01l3.52,7.58l0.01,0.01l0.01,0.01     l3.62,7.53l0.01,0.01l0.01,0.01l3.69,7.39l0.06,0.12l0.02,0.03l0.02,0.03l0.06,0.11l23.39,42.8l23.47,42.77l6.83,12.34l6.9,12.31     l2.26,4.13l2.16,4.16l2.06,4.22l1.95,4.26l1.85,4.31l1.75,4.35l1.65,4.39l1.54,4.41l1.36,4.23l1.25,4.24l1.14,4.28l1.03,4.3     l0.92,4.33l0.82,4.35l0.71,4.37l0.18,1.32l-0.7,1.14l-2.42,3.69l-2.51,3.64l-2.6,3.57l-2.69,3.5l-0.04,0.04l-2.08,2.55l3.22,0.67     l14.89,3.1l8.71,1.81l0.24,0.05l0.02,0l0.02,0l0.24,0.05l8.77,1.58l0.01,0l0.01,0l0.24,0.04l0.25,0.04l0.01,0l0.01,0l8.79,1.34     l0.01,0l0.01,0l0.24,0.04l0.01,0l0.01,0l0.24,0.03l0.01,0l0.01,0l8.83,1.1l0.01,0l0.01,0l0.21,0.03l0.01,0l0.01,0l0.21,0.02     l11.86,1.2l0.19,0.02l0.01,0l0.01,0l0.18,0.01l11.88,0.96l0.18,0.01l0.01,0l0.01,0l0.18,0.01l0.01,0l0.01,0l11.89,0.71l0.19,0.01     l0.01,0l0.01,0l0.18,0.01l11.91,0.48l0.01,0l0.01,0l0.36,0.01l0.01,0l0.01,0l0.36,0.01l0.01,0h0.01h63.66h0.01l0.01,0l0.36-0.01     l0.01,0l0.01,0l0.36-0.01l0.01,0l0.01,0l11.9-0.48l0.19-0.01l0.01,0l0.01,0l0.18-0.01l11.9-0.72l0.17-0.01l0.03,0l0.03,0     l0.18-0.02l11.87-0.95l0.18-0.02l0.01,0l0.01,0l0.18-0.02l11.86-1.2l0.22-0.02l0.01,0l0.01,0l0.21-0.03l0.01,0l0.01,0l8.82-1.1     l0.24-0.03l0.02,0l0.02,0l0.24-0.04l0.01,0l0.01,0l8.8-1.34l0.25-0.04l0.02,0l0.02,0l0.24-0.04l8.76-1.58l0.25-0.05l0.01,0     l0.01,0l0.24-0.05l0.01,0l0.01,0l8.71-1.81l14.9-3.1l3.16-0.66l-1.99-2.54l-0.05-0.06l-2.7-3.51l-2.6-3.57l-2.51-3.63l-2.42-3.7     l-0.7-1.13l0.18-1.32l0.71-4.37l0.82-4.35l0.92-4.33l1.03-4.3l1.14-4.28l1.25-4.24l1.36-4.23l1.54-4.41l1.65-4.39l1.75-4.35     l1.85-4.31l1.95-4.26l2.06-4.21l2.16-4.17l2.26-4.13l6.9-12.3l6.83-12.35l16.76-30.54l2.09-0.61l1.92-0.56l-0.56-1.92l-0.61-2.09     l1.57-2.86l2.09-0.61l1.92-0.56l-0.56-1.92l-0.61-2.09l22.85-41.8l0.01-0.02l0.01-0.02l0.06-0.11l0.06-0.11l0.01-0.02l0.01-0.02     l3.73-7.48l0.01-0.01l0.01-0.01l3.62-7.53l0.01-0.01l0.01-0.01l3.52-7.58l0.01-0.01l0.01-0.01l3.4-7.58l0.01-0.01l0.01-0.01     l3.33-7.71l0.01-0.01l0.01-0.01l3.21-7.72l0.01-0.01l0.01-0.01l3.11-7.78l0.01-0.01l0.01-0.02l2.94-7.72l5.04-13.22l0-0.01     l0-0.01l4.52-12.28l1.98-0.94l1.81-0.85l-0.85-1.81l-0.93-1.97l3.12-8.76l0-0.01l0-0.01l4.6-13.3l0-0.01l0-0.01l4.45-13.29     l0-0.01l0-0.01l4.3-13.27l0-0.01l0-0.01l4.16-13.31l0-0.01l0-0.01l3.93-13.01l6.59-17.69l2.18-5.86l0.63-1.7l-1.62-0.8     l-5.59-2.74l-54.75-26.86l-0.02-0.01l-0.02-0.01l-15.29-7.16l-0.74-2.05l-0.68-1.88l-1.88,0.68l-2.05,0.74l-2.91-1.36l-0.74-2.05     l-0.68-1.88l-1.88,0.68l-2.05,0.74l-0.73-0.34l-0.02-0.01l-0.02-0.01l-0.14-0.06l-0.01-0.01l-0.01-0.01l-0.14-0.06l-0.01,0     l-0.01,0l-5.74-2.38l-0.01-0.01l-0.01-0.01l-5.77-2.3l-0.01-0.01l-0.01-0.01l-5.8-2.22l-0.01,0l-0.01,0l-5.79-2.12l-0.01,0     l-0.01,0l-5.9-2.07l-0.01,0l-0.01,0l-5.89-1.97l-0.01,0l-0.01,0l-5.96-1.91l-0.02-0.01l-0.02-0.01l-5.86-1.74l-3.49-1.04l-0.01,0     l-0.01,0l-0.12-0.03l-0.02-0.01l-0.02,0l-0.11-0.03l-3.52-0.92l-0.03-0.01l-0.03-0.01l-0.05-0.01l-0.05-0.01l-0.02-0.01     l-0.02-0.01l-3.54-0.83l-0.01,0l-0.01,0l-0.08-0.02l-0.08-0.02l-0.01,0l-0.01,0l-3.56-0.75l-0.01,0l-0.01,0l-0.08-0.02l-0.01,0     l-0.01,0l-0.08-0.01l-3.57-0.66l-0.03-0.01l-0.03,0l-0.07-0.01l-0.07-0.01l-3.59-0.58l-0.08-0.01l-0.07-0.01l-0.02,0l-0.02,0     l-3.6-0.49l-0.01,0l-0.01,0l-0.08-0.01l-0.09-0.01l-0.01,0l-0.01,0l-3.61-0.41l-0.03,0l-0.03,0l-0.38-0.03l-0.06,0l-0.06,0     l-0.38-0.01l-0.03,0h-0.03H301.19l-1.54-1.54L298.24,584.6L298.24,584.6z"/>
			<path fill="#6D6E71 icc-named-color(ASGCOLORS, LASER)" d="M781.87,605.53l0.36,0l0.36,0.01l11.9,0.48l0.18,0.01l0.18,0.01l11.89,0.72l0.18,0.01l0.18,0.02     l11.88,0.96l0.18,0.01l0.18,0.02l11.86,1.2l0.21,0.02l0.21,0.03l8.82,1.1l0.24,0.03l0.24,0.04l8.79,1.34l0.24,0.04l0.24,0.04     l8.75,1.58l0.24,0.04l0.24,0.05l8.71,1.81l14.9,3.1l-0.05,0.07l-2.72,3.54l-2.63,3.61l-2.54,3.68l-2.45,3.74l-1.09,1.76     l0.28,2.06l0.71,4.42l0.83,4.4l0.93,4.38l1.04,4.36l1.15,4.32l1.26,4.29l1.37,4.28l1.55,4.46l1.66,4.44l1.77,4.4l1.87,4.35     l1.98,4.3l2.08,4.26l2.18,4.2l2.28,4.17l6.9,12.31l6.83,12.34l17.16,31.27l2.88,0.84l-0.84,2.89l2.36,4.31l2.89,0.84l-0.84,2.89     l23.25,42.53l0.06,0.11l0.06,0.12l3.72,7.48l3.62,7.53l3.52,7.58l3.4,7.58l3.33,7.71l3.21,7.72l3.11,7.78l2.94,7.72l5.04,13.22     l4.8,13.05l2.72,1.28l-1.28,2.72l3.4,9.54l4.6,13.3l4.45,13.29l4.29,13.27l4.16,13.31l3.95,13.07l6.61,17.75l2.19,5.86     l-5.59,2.74l-54.75,26.86l-16.04,7.51l-1.02,2.82l-2.83-1.02l-4.41,2.07l-1.02,2.82l-2.83-1.02l-1.48,0.69l-0.14,0.06l-0.14,0.06     l-5.74,2.38l-5.77,2.3l-5.8,2.22l-5.79,2.12l-5.9,2.07l-5.89,1.97l-5.96,1.91l-5.86,1.74l-3.49,1.04l-0.11,0.03l-0.11,0.03     l-3.52,0.91l-0.08,0.02l-0.08,0.02l-3.54,0.83l-0.08,0.02l-0.08,0.02l-3.56,0.75l-0.08,0.02l-0.08,0.01l-3.57,0.67l-0.08,0.01     l-0.08,0.01l-3.59,0.58l-0.08,0.01l-0.08,0.01l-3.6,0.49l-0.08,0.01l-0.08,0.01l-3.61,0.41l-0.38,0.03l-0.38,0.01H752.16     l-2.12,2.12l-2.12-2.12H640.44l-0.39-0.01l-0.38-0.03l-3.61-0.41l-0.08-0.01l-0.08-0.01l-3.6-0.49l-0.08-0.01l-0.08-0.01     l-3.59-0.58l-0.08-0.01l-0.08-0.01l-3.57-0.66l-0.08-0.01l-0.08-0.02l-3.56-0.75l-0.08-0.02l-0.08-0.02l-3.54-0.83l-0.15-0.04     l-3.52-0.91l-0.11-0.03l-0.11-0.03l-3.48-1.04l-6-1.78l-5.92-1.9l-5.89-1.97l-5.81-2.04l-5.88-2.15l-5.8-2.22l-5.77-2.3     l-5.65-2.34l-0.14-0.06l-0.14-0.07l-9.74-4.56l-2.83,1.02l-1.02-2.82l-16.04-7.51l-54.75-26.86l-5.59-2.74l2.18-5.86l6.61-17.75     l3.95-13.07l4.16-13.31l4.29-13.27l4.45-13.29l4.6-13.3l4.75-13.32l4.91-13.34l5.01-13.15l2.98-7.83l3.1-7.76l3.21-7.72l3.3-7.63     l3.44-7.67l3.52-7.58l3.62-7.53l3.69-7.39l0.06-0.12l0.06-0.11l23.39-42.79l23.47-42.76l6.83-12.34l6.9-12.31l2.28-4.17l2.18-4.2     l2.08-4.26l1.97-4.3l1.87-4.35l1.77-4.4l1.66-4.44l1.55-4.46l1.37-4.28l1.26-4.29l1.15-4.33l1.04-4.35l0.93-4.38l0.83-4.4     l0.71-4.42l0.28-2.06l-1.09-1.77l-2.45-3.74l-2.54-3.68l-2.63-3.61l-2.72-3.54l-0.06-0.07l14.9-3.1l8.71-1.81l0.24-0.05     l0.24-0.05l8.75-1.58l0.24-0.04l0.24-0.04l8.79-1.34l0.24-0.04l0.24-0.03l8.83-1.1l0.21-0.03l0.21-0.02l11.86-1.2l0.18-0.02     l0.18-0.01l11.88-0.96l0.18-0.02l0.18-0.01l11.89-0.72l0.18-0.01l0.18-0.01l11.9-0.48l0.36-0.01l0.36,0H781.87 M781.88,603.53     h-0.01h-63.66h-0.01l-0.01,0l-0.36,0.01l-0.01,0l-0.01,0l-0.36,0.01l-0.01,0l-0.01,0l-11.9,0.48l-0.19,0.01l-0.01,0l-0.01,0     l-0.18,0.01l-11.9,0.72l-0.01,0l-0.01,0l-0.18,0.01l-0.01,0l-0.01,0l-0.18,0.02l-11.87,0.95l-0.18,0.02l-0.01,0l-0.01,0     l-0.18,0.02l-11.86,1.2l-0.22,0.02l-0.01,0l-0.01,0l-0.21,0.03l-0.01,0l-0.01,0l-8.83,1.1l-0.01,0l-0.01,0l-0.24,0.03l-0.01,0     l-0.01,0l-0.24,0.04l-0.01,0l-0.01,0l-8.79,1.34l-0.01,0l-0.01,0l-0.24,0.04l-0.24,0.04l-0.01,0l-0.01,0l-8.76,1.58l-0.25,0.05     l-0.02,0l-0.02,0l-0.24,0.05l-8.71,1.81l-14.9,3.11l-3.22,0.67l2.08,2.55l0.04,0.04l2.69,3.5l2.6,3.57l2.51,3.64l2.42,3.69     l0.7,1.14l-0.18,1.32l-0.71,4.37l-0.82,4.35l-0.92,4.33l-1.03,4.3l-1.14,4.28l-1.25,4.24l-1.36,4.23l-1.54,4.41l-1.65,4.39     l-1.75,4.35l-1.85,4.31l-1.95,4.26l-2.06,4.22l-2.16,4.16l-2.26,4.13l-6.9,12.3l-6.84,12.35l-23.47,42.77l-23.39,42.8l-0.06,0.12     l-0.02,0.03l-0.02,0.03l-0.06,0.12l-3.69,7.39l-0.01,0.01l-0.01,0.01l-3.62,7.53l-0.01,0.01l-0.01,0.01l-3.52,7.58l-0.01,0.01     l-0.01,0.01l-3.44,7.67l-0.01,0.01l-0.01,0.01l-3.3,7.63l-0.01,0.01l-0.01,0.01l-3.21,7.72l-0.01,0.01l-0.01,0.01l-3.1,7.76     l-0.01,0.02l-0.01,0.02l-2.98,7.83l-5.01,13.15l0,0.01l0,0.01l-4.91,13.35l0,0.01l0,0.01l-4.75,13.32l0,0.01l0,0.01l-4.6,13.3     l0,0.01l0,0.01l-4.45,13.29l0,0.01l0,0.01l-4.29,13.27l0,0.01l0,0.01l-4.16,13.31l0,0.01l0,0.01l-3.93,13.01l-6.59,17.69     l-2.18,5.87l-0.63,1.7l1.62,0.8l5.59,2.74l54.75,26.86l0.02,0.01l0.02,0.01l15.29,7.16l0.74,2.05l0.68,1.88l1.88-0.68l2.05-0.74     l8.99,4.21l0.15,0.07l0.03,0.01l0.03,0.01l0.14,0.06l0.01,0l0.01,0l5.65,2.34l0.01,0.01l0.01,0.01l5.77,2.3L574,1053l0.01,0.01     l5.8,2.22l0.01,0.01l0.01,0l5.88,2.15l0.01,0l0.01,0l5.81,2.04l0.01,0l0.01,0l5.89,1.97l0.01,0l0.01,0l5.91,1.9l0.02,0.01     l0.02,0.01l6,1.78l3.48,1.04l0.01,0l0.01,0l0.11,0.03l0.02,0.01l0.02,0l0.11,0.03l3.52,0.91l0.16,0.04l0.02,0.01l0.02,0.01     l3.54,0.83l0.01,0l0.01,0l0.08,0.02l0.08,0.02l0.01,0l0.01,0l3.56,0.75l0.01,0l0.01,0l0.08,0.02l0.01,0l0.01,0l0.08,0.01     l3.58,0.66l0.07,0.01l0.03,0.01l0.03,0l0.08,0.01l3.59,0.58l0.08,0.01l0.09,0.01l0.02,0l0.02,0l3.6,0.49l0.01,0l0.01,0l0.08,0.01     l0.07,0.01l0.02,0l0.02,0l3.61,0.41l0.03,0l0.03,0l0.38,0.03l0.05,0l0.05,0l0.38,0.01l0.03,0h0.03h106.64l1.54,1.54l1.41,1.41     l1.41-1.41l1.54-1.54h106.64h0.03l0.03,0l0.38-0.01l0.06,0l0.06,0l0.38-0.03l0.03,0l0.03,0l3.61-0.41l0.01,0l0.01,0l0.08-0.01     l0.09-0.01l0.01,0l0.01,0l3.6-0.49l0.02,0l0.02,0l0.08-0.01l0.07-0.01l3.59-0.58l0.08-0.01l0.07-0.01l0.03,0l0.03-0.01l3.57-0.67     l0.08-0.01l0.01,0l0.01,0l0.08-0.02l0.01,0l0.01,0l3.56-0.75l0.01,0l0.01,0l0.08-0.02l0.08-0.02l0.01,0l0.01,0l3.54-0.83     l0.02-0.01l0.02-0.01l0.05-0.01l0.05-0.01l0.03-0.01l0.03-0.01l3.52-0.92l0.12-0.03l0.02,0l0.02-0.01l0.11-0.03l0.01,0l0.01,0     l3.48-1.04l5.86-1.74l0.02-0.01l0.02-0.01l5.96-1.91l0.01,0l0.01,0l5.89-1.97l0.01,0l0.01,0l5.9-2.07l0.01,0l0.01-0.01l5.79-2.12     l0.01,0l0.01,0l5.8-2.22l0.01-0.01l0.01-0.01l5.77-2.3l0.01-0.01l0.01-0.01l5.74-2.38l0.01,0l0.01,0l0.14-0.06l0.01-0.01     l0.01-0.01l0.14-0.06l0.02-0.01l0.02-0.01l0.73-0.34l2.05,0.74l1.88,0.68l0.68-1.88l0.74-2.05l2.91-1.36l2.05,0.74l1.88,0.68     l0.68-1.88l0.74-2.05l15.29-7.16l0.02-0.01l0.02-0.01l54.75-26.86l5.59-2.75l1.62-0.8l-0.63-1.7l-2.19-5.86l-6.59-17.69     l-3.93-13.01l0-0.01l0-0.01l-4.16-13.31l0-0.01l0-0.01l-4.29-13.27l0-0.01l0-0.01l-4.45-13.29l0-0.01l0-0.01l-4.6-13.3l0-0.01     l0-0.01l-3.12-8.76l0.93-1.97l0.85-1.81l-1.81-0.85l-1.98-0.94l-4.52-12.28l0-0.01l0-0.01l-5.04-13.22l-2.94-7.72l-0.01-0.02     l-0.01-0.01l-3.11-7.78l-0.01-0.01l-0.01-0.01l-3.21-7.72l-0.01-0.01l-0.01-0.01l-3.33-7.71l-0.01-0.01l-0.01-0.01l-3.4-7.58     l-0.01-0.01l-0.01-0.01l-3.52-7.58l-0.01-0.01l-0.01-0.01l-3.62-7.53l-0.01-0.01l-0.01-0.01l-3.72-7.48l-0.01-0.02l-0.01-0.02     l-0.06-0.11l-0.06-0.11l-0.01-0.02l-0.01-0.02l-22.85-41.8l0.61-2.09l0.56-1.92l-1.92-0.56l-2.09-0.61l-1.57-2.86l0.61-2.09     l0.56-1.92l-1.92-0.56l-2.09-0.61l-16.76-30.54l-6.83-12.34l-6.9-12.31l-2.27-4.14l-2.16-4.17l-2.06-4.21l-1.95-4.26l-1.85-4.31     l-1.75-4.35l-1.65-4.39l-1.54-4.41l-1.36-4.23l-1.25-4.25l-1.14-4.28l-1.03-4.3l-0.92-4.33l-0.82-4.35l-0.71-4.37l-0.18-1.32     l0.7-1.13l2.42-3.7l2.51-3.63l2.6-3.58l2.7-3.51l0.05-0.06l1.99-2.54l-3.16-0.66l-14.9-3.1l-8.71-1.81l-0.01,0l-0.01,0     l-0.24-0.05l-0.01,0l-0.01,0l-0.24-0.04l-8.77-1.58l-0.25-0.04l-0.02,0l-0.02,0l-0.24-0.04l-8.8-1.34l-0.01,0l-0.01,0l-0.24-0.04     l-0.02,0l-0.02,0l-0.24-0.03l-8.82-1.1l-0.01,0l-0.01,0l-0.21-0.03l-0.01,0l-0.01,0l-0.21-0.02l-11.86-1.2l-0.19-0.02l-0.01,0     l-0.01,0l-0.18-0.01l-11.88-0.96l-0.17-0.01l-0.03,0l-0.03,0l-0.17-0.01l0,0l-11.89-0.72l-0.19-0.01l-0.01,0l-0.01,0l-0.18-0.01     l-11.91-0.48l-0.01,0l-0.01,0l-0.36-0.01l-0.01,0l-0.01,0l-0.36-0.01L781.88,603.53L781.88,603.53z"/>
			<path fill="#6D6E71 icc-named-color(ASGCOLORS, LASER)" d="M1105.62,718.57l0.29,2.6l0.95,8.55l0.01,0.07l0.01,0.07l0.76,8.57l0.01,0.08l0.01,0.07l0.58,8.58     l0.01,0.07l0,0.08l0.4,8.65l0.49,16.83l0.3,16.74l0.11,16.81l-0.07,16.71l-0.01,0.24l-0.02,0.24l-3.22,43.41l1.96,2.28     l-2.28,1.96l-0.36,4.91l1.96,2.28l-2.28,1.96l-1.2,16.19l-0.19,2.51l-6.87-0.74l-6.25-0.68l-6.24-0.79l-6.22-0.91l-6.21-1.02     l-6.18-1.13l-6.17-1.25l-6.14-1.37l-6.07-1.46l-5.13-1.35l-5.06-1.45l-5.02-1.56l-4.99-1.68l-4.95-1.78l-4.91-1.9l-4.86-2     l-4.77-2.09l-0.86-0.38l-0.35-0.88l-2.34-5.92l-2.08-6.01l-1.83-6.1l-1.56-6.18l-1.3-6.24l-1.03-6.29l-0.76-6.33l-0.48-6.3     l-0.27-7.41l0.01-7.36l0.28-7.36l0.55-7.34l0.82-7.32l1.09-7.28l1.36-7.24l1.6-7.1l0.16-0.71l0.27-0.24l0.27-0.24l4.94-4.49     l5.11-4.29l5.27-4.08l5.43-3.87l5.58-3.65l5.71-3.42l5.84-3.19l5.93-2.94l6.45-2.9l6.52-2.64l6.61-2.39l6.69-2.14l6.77-1.89     l6.83-1.63l6.89-1.37l6.85-1.1L1105.62,718.57 M1107.38,716.26l-2.07,0.33l-6.86,1.1l-6.85,1.1l-0.04,0.01l-0.04,0.01l-6.89,1.37     l-0.04,0.01l-0.04,0.01l-6.83,1.63l-0.04,0.01l-0.04,0.01l-6.77,1.89l-0.04,0.01l-0.04,0.01l-6.69,2.14l-0.04,0.01l-0.04,0.01     l-6.61,2.39l-0.04,0.01l-0.03,0.01l-6.52,2.64l-0.04,0.01l-0.03,0.02l-6.45,2.9l-0.04,0.02l-0.03,0.02l-5.93,2.94l-0.04,0.02     l-0.03,0.02l-5.84,3.19l-0.03,0.02l-0.03,0.02l-5.71,3.42l-0.03,0.02l-0.03,0.02l-5.58,3.65l-0.03,0.02l-0.03,0.02l-5.43,3.87     l-0.03,0.02l-0.03,0.02l-5.27,4.08l-0.03,0.02l-0.03,0.03l-5.11,4.29l-0.03,0.03l-0.03,0.03l-4.94,4.49l-0.27,0.24l-0.27,0.24     l-0.47,0.42l-0.14,0.62l-0.16,0.71l-1.6,7.1l-0.01,0.04l-0.01,0.04l-1.36,7.24l-0.01,0.04l-0.01,0.04l-1.09,7.28l-0.01,0.04     l0,0.04l-0.82,7.32l0,0.04l0,0.04l-0.55,7.34l0,0.04l0,0.04l-0.28,7.36l0,0.04l0,0.04l-0.01,7.36l0,0.04l0,0.04l0.27,7.41l0,0.04     l0,0.04l0.48,6.3l0,0.04l0.01,0.04l0.76,6.33l0.01,0.04l0.01,0.04l1.03,6.29l0.01,0.04l0.01,0.04l1.3,6.24l0.01,0.04l0.01,0.04     l1.56,6.17l0.01,0.04l0.01,0.04l1.83,6.1l0.01,0.04l0.01,0.04l2.08,6.01l0.01,0.04l0.02,0.04l2.34,5.92l0.35,0.88l0.3,0.77     l0.76,0.33l0.86,0.38l4.77,2.09l0.02,0.01l0.02,0.01l4.86,2l0.02,0.01l0.02,0.01l4.91,1.9l0.02,0.01l0.02,0.01l4.95,1.78     l0.02,0.01l0.02,0.01l4.99,1.68l0.02,0.01l0.02,0.01l5.02,1.56l0.02,0.01l0.02,0.01l5.06,1.45l0.02,0.01l0.02,0.01l5.13,1.35     l0.02,0.01l0.02,0l6.07,1.46l0.02,0l0.02,0l6.14,1.37l0.02,0l0.02,0l6.17,1.25l0.02,0l0.02,0l6.18,1.13l0.02,0l0.02,0l6.21,1.02     l0.02,0l0.02,0l6.22,0.91l0.02,0l0.02,0l6.24,0.79l0.02,0l0.02,0l6.25,0.68l6.87,0.74l2.06,0.22l0.15-2.06l0.19-2.51l1.14-15.36     l1.65-1.42l1.51-1.31l-1.31-1.51l-1.42-1.65l0.24-3.26l1.65-1.42l1.52-1.31l-1.31-1.52l-1.42-1.65l3.16-42.58l0-0.01l0-0.01     l0.02-0.24l0-0.04l0-0.04l0.01-0.24l0-0.02l0-0.02l0.07-16.71v-0.01l0-0.01l-0.11-16.82l0-0.01l0-0.01l-0.3-16.74l0-0.01l0-0.01     l-0.49-16.83l0-0.02l0-0.02l-0.39-8.64l0-0.06l0-0.03l0-0.03l-0.01-0.07l-0.58-8.58l-0.01-0.08l0-0.02l0-0.02l-0.01-0.07     l-0.76-8.56l0-0.01l0-0.01l-0.01-0.07l-0.01-0.07l0-0.01l0-0.01l-0.95-8.55l-0.29-2.6L1107.38,716.26L1107.38,716.26z"/>
			<path fill="#6D6E71 icc-named-color(ASGCOLORS, LASER)" d="M31.73,936.05l6.86,1.1l6.85,1.1l6.89,1.37l6.83,1.63l6.77,1.89l6.69,2.14l6.61,2.39l6.52,2.64l6.46,2.9     l5.92,2.94l5.84,3.19l5.72,3.42l5.58,3.65l5.43,3.87l5.27,4.08l5.11,4.29l4.94,4.49l0.27,0.24l0.27,0.24l0.16,0.71l1.6,7.1     l1.35,7.24l1.09,7.28l0.82,7.32l0.55,7.34l0.28,7.36l0,7.37l-0.27,7.41l-0.48,6.3l-0.75,6.33l-1.03,6.29l-1.3,6.24l-1.56,6.17     l-1.82,6.1l-2.08,6.01l-2.34,5.92l-0.35,0.88l-0.86,0.38l-4.77,2.09l-4.86,2l-4.91,1.9l-4.95,1.78l-4.99,1.68l-5.02,1.56     l-5.06,1.45l-5.13,1.35l-6.07,1.46l-6.14,1.37l-6.16,1.25l-6.18,1.13l-6.21,1.02l-6.22,0.91l-6.24,0.79l-6.25,0.68l-6.87,0.74     l-0.19-2.51l-1.2-16.19l-2.28-1.96l1.96-2.28l-0.36-4.91l-2.28-1.96l1.96-2.28l-3.22-43.41l-0.01-0.24l-0.01-0.24l-0.07-16.71     l0.11-16.81l0.3-16.74l0.49-16.83l0.4-8.65l0-0.08l0.01-0.07l0.58-8.58l0.01-0.07l0.01-0.08l0.76-8.57l0.01-0.07l0.01-0.07     l0.95-8.55L31.73,936.05 M29.97,933.74l-0.23,2.09l-0.29,2.6l-0.95,8.55l0,0.01l0,0.01l-0.01,0.07l-0.01,0.07l0,0.01l0,0.01     l-0.76,8.56l-0.01,0.07l0,0.02l0,0.03l-0.01,0.07l-0.58,8.59l-0.01,0.08l0,0.03l0,0.03l0,0.06l-0.39,8.64l0,0.02l0,0.02     l-0.49,16.83l0,0.01l0,0.01l-0.3,16.74l0,0.01l0,0.01l-0.12,16.81l0,0.01l0,0.01l0.07,16.71l0,0.02l0,0.02l0,0.24l0,0.04l0,0.04     l0.01,0.24l0,0.01l0,0.01l3.16,42.58l-1.42,1.65l-1.31,1.52l1.52,1.31l1.65,1.42l0.24,3.26l-1.42,1.65l-1.31,1.51l1.51,1.31     l1.65,1.42l1.14,15.36l0.19,2.51l0.15,2.06l2.06-0.22l6.87-0.74l6.25-0.68l0.02,0l0.02,0l6.24-0.79l0.02,0l0.02,0l6.22-0.91     l0.02,0l0.02,0l6.21-1.02l0.02,0l0.02,0l6.18-1.13l0.02,0l0.02,0l6.16-1.25l0.02,0l0.02,0l6.14-1.37l0.02,0l0.02,0l6.07-1.46     l0.02,0l0.02-0.01l5.13-1.35l0.02-0.01l0.02-0.01l5.06-1.45l0.02-0.01l0.02-0.01l5.02-1.56l0.02-0.01l0.02-0.01l4.99-1.68     l0.02-0.01l0.02-0.01l4.95-1.78l0.02-0.01l0.02-0.01l4.91-1.9l0.02-0.01l0.02-0.01l4.86-2l0.02-0.01l0.02-0.01l4.77-2.09     l0.86-0.37l0.76-0.33l0.3-0.77l0.35-0.88l2.34-5.92l0.02-0.04l0.01-0.04l2.08-6.01l0.01-0.04l0.01-0.04l1.82-6.1l0.01-0.04     l0.01-0.04l1.56-6.17l0.01-0.04l0.01-0.04l1.3-6.24l0.01-0.04l0.01-0.04l1.03-6.29l0.01-0.04l0.01-0.04l0.75-6.33l0.01-0.04     l0-0.04l0.48-6.3l0-0.04l0-0.04l0.27-7.41l0-0.04l0-0.04l0-7.36l0-0.04l0-0.04l-0.28-7.36l0-0.04l0-0.04l-0.55-7.34l0-0.04     l0-0.04l-0.82-7.32l0-0.04l-0.01-0.04l-1.09-7.28l-0.01-0.04l-0.01-0.04l-1.35-7.24l-0.01-0.04l-0.01-0.04l-1.6-7.1l-0.16-0.71     l-0.14-0.62l-0.47-0.42l-0.27-0.24l-0.27-0.24l-4.94-4.48l-0.03-0.03l-0.03-0.03l-5.11-4.29l-0.03-0.03l-0.03-0.02l-5.27-4.08     l-0.03-0.02l-0.03-0.02l-5.43-3.87l-0.03-0.02l-0.03-0.02l-5.58-3.65l-0.03-0.02l-0.03-0.02l-5.71-3.42l-0.03-0.02l-0.03-0.02     l-5.84-3.19l-0.03-0.02l-0.04-0.02l-5.92-2.94l-0.03-0.02l-0.03-0.02l-6.46-2.9l-0.03-0.02l-0.03-0.01L80,945.82l-0.03-0.01     l-0.04-0.01l-6.61-2.39l-0.04-0.01l-0.04-0.01l-6.69-2.14l-0.04-0.01l-0.04-0.01l-6.77-1.89l-0.04-0.01l-0.04-0.01l-6.83-1.63     l-0.04-0.01l-0.04-0.01l-6.89-1.37l-0.04-0.01l-0.04-0.01l-6.85-1.1l-6.86-1.1L29.97,933.74L29.97,933.74z"/>
			<path fill="#6D6E71 icc-named-color(ASGCOLORS, LASER)" d="M1048.24,614.16l2.68,3.94l2.67,3.94l0.52,0.71l-0.06,0.55l-0.4,3.44l-0.01,0.07l-0.01,0.08l-0.47,3.46     l-0.01,0.07l-0.01,0.07l-0.55,3.45l-0.01,0.08l-0.01,0.07l-0.62,3.43l-0.02,0.07l-0.02,0.07l-0.08,0.41v0l1.64,2.52l-2.52,1.64     l-0.54,2.4l-0.02,0.07l-0.02,0.07l-0.85,3.38l-0.02,0.07l-0.02,0.07l-0.92,3.36l-0.02,0.07l-0.02,0.07l-1,3.34l-0.02,0.07     l-0.02,0.07l-1.07,3.32l-0.03,0.07l-0.02,0.07l-1.14,3.29l-0.03,0.07l-0.02,0.07l-1.22,3.27l-0.03,0.07l-0.03,0.07l-1.29,3.24     l-0.03,0.07l-0.03,0.07l-1.36,3.21l-0.03,0.07l-0.03,0.07l-1.43,3.18l-0.03,0.07l-0.03,0.07l-1.5,3.15l-0.05,0.1l-1.7,3.39     l-1.82,3.45l-1.89,3.41l-1.95,3.37l-2.02,3.33l-2.09,3.29l-2.16,3.24l-2.22,3.2l-2.29,3.15l-2.35,3.1l-2.41,3.05l-2.48,3     l-2.53,2.95l-2.59,2.9l-2.65,2.84l-2.71,2.79l-0.68,0.61l-0.73,0.5l-12.46,7.39l-3.47,2.04l-3.44-2.04l-12.46-7.39l-0.75-0.52     l-0.66-0.6l-2.61-2.68l-2.65-2.84l-2.6-2.9l-2.54-2.95l-2.48-3l-2.41-3.05l-2.35-3.1l-2.29-3.15l-2.22-3.2l-2.16-3.24l-2.09-3.28     l-2.03-3.33l-1.96-3.37l-1.89-3.41l-1.82-3.45l-1.77-3.53l-0.04-0.08l-1.49-3.15l-0.03-0.07l-0.03-0.07l-1.42-3.18l-0.03-0.07     l-0.03-0.07l-1.36-3.21l-0.03-0.07l-0.03-0.07l-1.29-3.24l-0.03-0.07l-0.02-0.07l-1.22-3.27l-0.03-0.07l-0.03-0.07l-1.14-3.29     l-0.02-0.07l-0.02-0.07l-1.07-3.32l-0.02-0.07l-0.02-0.07l-1-3.34l-0.02-0.07l-0.02-0.07l-0.92-3.36l-0.02-0.07l-0.02-0.07     l-0.85-3.38l-0.02-0.07l-0.02-0.07l-0.55-2.4l-2.52-1.64l1.64-2.52l-0.08-0.41l-0.02-0.07l-0.01-0.07l-0.62-3.43l-0.02-0.07     l-0.01-0.08l-0.55-3.45l-0.01-0.07l-0.01-0.07l-0.47-3.46l-0.01-0.08l-0.01-0.07l-0.4-3.47l-0.04-0.36l-0.04-0.36l0.38-0.48     l5.56-7.59l2.22,1.9l2.22,1.9l2.68,2.29l2.68,2.14l2.73,2.03l2.79,1.93l2.84,1.82l2.89,1.72l2.93,1.61l2.95,1.49l2.05,0.94     l2.05,0.82l2.08,0.72l2.09,0.62l2.11,0.52l2.11,0.42l2.12,0.31l2.38,0.23l0.67,0.07l0.67,0.06l3.77,8.46l14.23,31.95l14.23-31.95     l3.76-8.43l0.54-0.07l0.54-0.07l2.7-0.33l2.45-0.41l2.44-0.52l2.43-0.63l2.42-0.74l2.4-0.85l2.37-0.97l2.35-1.08l2.66-1.36     l2.64-1.47l2.59-1.58l2.54-1.69l2.48-1.8l2.42-1.9l2.36-2.01l2.37-2.18l2.31-2.12L1048.24,614.16 M1048.59,611.12l-1.7,1.56     l-2.31,2.12l-2.31,2.12l-2.34,2.15l-2.3,1.96l-2.36,1.85l-2.42,1.75l-2.47,1.65l-2.52,1.54l-2.57,1.43l-2.59,1.32l-2.28,1.04     l-2.29,0.93l-2.32,0.83l-2.34,0.72l-2.35,0.61l-2.36,0.51l-2.36,0.4l-2.65,0.33l-0.54,0.07l-0.54,0.07l-1.12,0.14l-0.46,1.03     l-3.76,8.43l-12.41,27.84l-12.41-27.84l-3.77-8.46l-0.47-1.06l-1.16-0.11l-0.67-0.06l-0.66-0.07l-2.34-0.23l-2.02-0.3l-2.02-0.4     l-2.02-0.49l-2-0.59l-1.99-0.69l-1.97-0.79l-1.98-0.9l-2.88-1.46l-2.87-1.58l-2.83-1.69l-2.79-1.79l-2.74-1.89l-2.68-1.99     l-2.63-2.1l-2.66-2.27l-2.22-1.9l-2.22-1.9l-1.64-1.4l-1.27,1.74l-5.54,7.56l-0.36,0.45l-0.51,0.65l0.1,0.82l0.04,0.36l0.04,0.36     l0.4,3.48l0,0.02l0,0.02l0.01,0.07l0.01,0.07l0.47,3.46l0,0.03l0,0.03l0.01,0.04l0.01,0.04l0,0.03l0,0.03l0.55,3.42l0.01,0.05     l0.01,0.07l0.01,0.07l0.01,0.06l0.58,3.2l-1.2,1.84l-1.09,1.67l1.67,1.09l1.84,1.2l0.37,1.61l0,0.01l0,0.01l0.02,0.07l0.02,0.07     l0,0.02l0,0.02l0.85,3.38l0,0.01l0,0.01l0.02,0.07l0,0.01l0,0.01l0.02,0.07l0.92,3.35l0.02,0.07l0.01,0.04l0.01,0.04l0.02,0.06     l0.99,3.33l0.02,0.08l0,0.01l0,0.01l0.02,0.07l0,0.01l0,0.01l1.07,3.31l0.02,0.06l0.01,0.03l0.01,0.03l0.02,0.07l1.14,3.3     l0.02,0.07l0.01,0.03l0.01,0.03l0.03,0.07l1.21,3.25l0.02,0.06l0.01,0.02l0.01,0.02l0.03,0.07l0.01,0.01l0.01,0.01l1.28,3.22     l0.02,0.06l0.01,0.04l0.02,0.04l0.03,0.07l1.35,3.2l0.03,0.08l0.01,0.03l0.01,0.03l0.03,0.06l1.42,3.16l0.01,0.01l0.01,0.01     l0.03,0.07l0.03,0.07l0,0.01l0,0.01l1.49,3.15l0,0.01l0,0.01l0.04,0.08l0.01,0.01l0.01,0.01l1.77,3.53l0.01,0.02l0.01,0.02     l1.82,3.45l0.01,0.02l0.01,0.02l1.89,3.41l0.01,0.02l0.01,0.02l1.96,3.37l0.01,0.02l0.01,0.02l2.03,3.33l0.01,0.02l0.01,0.02     l2.09,3.28l0.01,0.02l0.01,0.02l2.16,3.24l0.01,0.02l0.01,0.02l2.22,3.2l0.01,0.02l0.01,0.02l2.29,3.15l0.01,0.02l0.01,0.02     l2.35,3.1l0.01,0.02l0.01,0.02l2.41,3.05l0.01,0.02l0.01,0.02l2.48,3l0.01,0.02l0.01,0.02l2.54,2.95l0.01,0.01l0.01,0.01l2.6,2.9     l0.01,0.02l0.01,0.02l2.65,2.84l0.01,0.01l0.01,0.01l2.61,2.68l0.05,0.05l0.05,0.04l0.66,0.6l0.1,0.09l0.11,0.07l0.75,0.52     l0.06,0.04l0.06,0.03l12.46,7.39l3.44,2.04l1.02,0.6l1.02-0.6l3.46-2.04l12.46-7.39l0.06-0.03l0.05-0.04l0.73-0.5l0.11-0.07     l0.1-0.09l0.68-0.61l0.05-0.04l0.05-0.05l2.71-2.79l0.01-0.01l0.01-0.01l2.65-2.84l0.01-0.02l0.01-0.02l2.59-2.9l0.01-0.02     l0.01-0.02l2.53-2.95l0.01-0.02l0.01-0.02l2.48-3l0.01-0.02l0.01-0.02l2.41-3.05l0.01-0.02l0.01-0.02l2.35-3.1l0.01-0.02     l0.01-0.02l2.29-3.15l0.01-0.02l0.01-0.02l2.22-3.2l0.01-0.02l0.01-0.02l2.16-3.24l0.01-0.02l0.01-0.02l2.09-3.29l0.01-0.02     l0.01-0.02l2.02-3.33l0.01-0.02l0.01-0.02l1.95-3.37l0.01-0.02l0.01-0.02l1.89-3.41l0.01-0.02l0.01-0.02l1.82-3.45l0.01-0.02     l0.01-0.02l1.7-3.39l0.01-0.01l0-0.01l0.05-0.1l0-0.01l0-0.01l1.5-3.15l0-0.01l0-0.01l0.03-0.07l0.01-0.03l0.01-0.03l0.02-0.05     l1.42-3.16l0.01-0.02l0.01-0.02l0.03-0.07l0.03-0.07l1.36-3.22l0.01-0.02l0.01-0.02l0.02-0.05l0.02-0.05l0.01-0.01l0.01-0.01     l1.29-3.24l0.01-0.01l0.01-0.01l0.02-0.06l0.02-0.06l0.01-0.02l0.01-0.02l1.22-3.27l0.01-0.02l0.01-0.02l0.02-0.07l0.02-0.07     l1.14-3.29l0.03-0.08l0.02-0.07l0.01-0.02l0.01-0.02l1.07-3.32l0-0.01l0-0.01l0.02-0.07l0-0.01l0-0.01l0.02-0.07l1-3.34     l0.01-0.02l0.01-0.02l0.01-0.05l0.02-0.05l0.01-0.02l0.01-0.02l0.92-3.36l0.02-0.07l0.01-0.04l0.01-0.04l0.01-0.06l0.84-3.35     l0.02-0.06l0.01-0.02l0.01-0.02l0.02-0.07l0-0.01l0-0.01l0.37-1.61l1.84-1.2l1.68-1.09l-1.09-1.68l-1.2-1.83l0.59-3.22l0-0.02     l0-0.02l0.01-0.07l0.01-0.08l0.55-3.44l0.01-0.07l0.01-0.03l0-0.03l0.01-0.07l0.47-3.45l0.01-0.08l0.01-0.07l0-0.02l0-0.02     l0.4-3.44l0.06-0.56l0.09-0.78l-0.46-0.63l-0.5-0.69l-2.66-3.91l-2.68-3.94L1048.59,611.12L1048.59,611.12z"/>
			<path fill="#6D6E71 icc-named-color(ASGCOLORS, LASER)" d="M466.27,1332.63l6.79,0.77l-0.89,8l-4.55,41.04l1.88,2.35l-2.35,1.88l-4.55,41.03l-0.77,6.89l-6.79-0.77     h-47.23l-2.13,2.13l-2.12-2.13h-47.23l-6.79,0.77l-0.76-6.89l-4.55-41.03l-2.35-1.88l1.88-2.35l-4.55-41.04l-0.89-8.01l6.79-0.76     l3.76,1.76l3.2,1.49l3.11,1.28l3.17,1.13l3.23,0.98l3.67,0.93l3.71,0.78l3.74,0.62l3.5,0.42h27.38l2.12-2.13l2.13,2.13h27.38     l3.5-0.42l3.74-0.62l3.71-0.78l3.67-0.93l3.22-0.98l3.17-1.13l3.11-1.28l3.2-1.49L466.27,1332.63 M465.93,1330.58l-0.51,0.24     l-3.77,1.76l-3.15,1.47l-3.02,1.24l-3.08,1.1l-3.13,0.95l-3.58,0.91l-3.63,0.76l-3.65,0.6l-3.34,0.41h-26.43l-1.54-1.54     l-1.42-1.42l-1.41,1.42l-1.54,1.54H376.3l-3.34-0.41l-3.66-0.6l-3.63-0.76l-3.58-0.91l-3.14-0.95l-3.08-1.1l-3.02-1.24     l-3.15-1.47l-3.76-1.76l-0.51-0.24l-0.56,0.06l-6.79,0.76l-1.99,0.22l0.22,1.99l0.89,8.01l4.46,40.21l-1.36,1.7l-1.25,1.56     l1.56,1.25l1.7,1.36l4.46,40.21l0.76,6.88l0.22,1.99l1.99-0.22l6.68-0.75h46.29l1.54,1.54l1.41,1.42l1.42-1.42l1.54-1.54h46.29     l6.68,0.75l1.99,0.22l0.22-1.99l0.76-6.89l4.46-40.21l1.7-1.36l1.56-1.25l-1.25-1.56l-1.36-1.7l4.46-40.21l0.89-8l0.22-1.98     l-1.98-0.22l-6.79-0.77L465.93,1330.58L465.93,1330.58z"/>
			<path fill="#6D6E71 icc-named-color(ASGCOLORS, LASER)" d="M297.33,1330.69l6.8,0.73l-0.87,8.12l-1.64,15.35l1.89,2.34l-2.34,1.89l-5.15,48.17l1.89,2.34l-2.34,1.89     l-1.64,15.35l-0.73,6.89l-6.8-0.74h-49.54l-2.13,2.12l-2.12-2.12h-49.54l-6.79,0.74l-0.74-6.89l-1.64-15.35l-2.34-1.89l1.89-2.34     l-5.15-48.17l-2.34-1.89l1.89-2.34l-1.64-15.35l-0.87-8.12l6.79-0.74l3.91,1.95l2.81,1.41l2.88,1.32l2.9,1.17l2.94,1.03l3,0.89     l3.68,0.92l3.73,0.78l3.76,0.62l3.49,0.44h27.36l2.12-2.12l2.13,2.12h27.36l3.49-0.44l3.76-0.62l3.73-0.78l3.69-0.92l3-0.89     l2.95-1.03l2.89-1.17l2.88-1.32l2.81-1.41L297.33,1330.69 M172.51,1328.64l-0.58,0.06l-6.79,0.74l-1.99,0.22l0.21,1.99l0.87,8.12     l1.55,14.53l-1.37,1.7l-1.26,1.56l1.56,1.26l1.7,1.37l4.97,46.52l-1.37,1.7l-1.26,1.56l1.56,1.26l1.7,1.37l1.55,14.53l0.73,6.88     l0.21,1.99l1.99-0.22l6.69-0.73h48.6l1.54,1.54l1.41,1.41l1.41-1.41l1.54-1.54h48.6l6.69,0.73l1.99,0.22l0.21-1.99l0.73-6.89     l1.55-14.53l1.7-1.37l1.56-1.26l-1.26-1.56l-1.37-1.7l4.97-46.52l1.7-1.37l1.56-1.26l-1.26-1.56l-1.37-1.7l1.55-14.53l0.87-8.12     l0.21-1.99l-1.99-0.21l-6.8-0.73l-0.58-0.06l-0.53,0.26l-3.91,1.95l-2.78,1.39l-2.81,1.29l-2.8,1.13l-2.86,1l-2.91,0.86     l-3.61,0.9l-3.65,0.76l-3.68,0.61l-3.33,0.42h-26.41l-1.54-1.54l-1.41-1.41l-1.41,1.41l-1.54,1.54h-26.41l-3.33-0.42l-3.68-0.61     l-3.65-0.76l-3.6-0.9l-2.91-0.86l-2.86-1l-2.81-1.13l-2.81-1.29l-2.78-1.39l-3.91-1.96L172.51,1328.64L172.51,1328.64z"/>
			<path fill="#6D6E71 icc-named-color(ASGCOLORS, LASER)" d="M869.66,1094.26v117.46l2.12,2.12l-2.12,2.12v105.99H781.1l-2.12,2.12l-2.12-2.12H663.28l-1.46-12.02     l5.78-1.52l3.43-0.91l3.22-1.03l3.17-1.19l3.1-1.35l2.66-1.32l0.81-2.89l2.89,0.81l2.48-1.57l2.76-1.94l2.68-2.09l2.56-2.22     l2.45-2.35l2.33-2.47l2.2-2.58l2.07-2.69l1.93-2.8l1.79-2.89l1.95-3.51l1.8-3.59l1.65-3.67l1.49-3.73l1.33-3.8l1.16-3.85l1-3.9     l0.83-3.94L722,1243l0.49-3.99l0.32-4.01l0.15-4.02l-0.03-4.02l-0.2-4.02l-0.37-4.01l-0.45-3.3l-2.44-1.75l1.76-2.44l-0.14-0.64     l-0.57-1.82l-0.71-1.77l-0.82-1.64l-0.96-1.57l-1.08-1.48l-1.25-1.44l-1.8-1.85l-1.9-1.61l-0.51-0.36l-6.8,0.73l-0.93-8.75     l-1.64-15.35l-2.34-1.89l1.89-2.34l-5.15-48.17l-2.34-1.89l1.89-2.34l-1.64-15.35l-0.74-6.89l6.8-0.74H869.66 M871.66,1092.26h-2     H700.49h-0.11l-0.11,0.01l-6.79,0.74l-1.99,0.22l0.21,1.99l0.74,6.89l1.55,14.53l-1.37,1.69l-1.26,1.56l1.56,1.26l1.7,1.37     l4.97,46.52l-1.37,1.7l-1.26,1.56l1.56,1.26l1.7,1.37l1.55,14.53l0.94,8.75l0.21,1.99l1.99-0.22l6.01-0.65l1.61,1.37l1.7,1.74     l1.15,1.33l0.98,1.35l0.87,1.43l0.75,1.5l0.65,1.62l0.43,1.38l-1.21,1.69l-1.17,1.63l1.63,1.17l1.74,1.25l0.33,2.41l0.36,3.92     l0.2,3.93l0.03,3.94l-0.14,3.93l-0.31,3.93l-0.48,3.91l-0.65,3.89l-0.81,3.85l-0.98,3.81l-1.14,3.77l-1.3,3.72l-1.46,3.65     l-1.61,3.59l-1.76,3.52l-1.91,3.43l-1.74,2.81l-1.87,2.71l-2.01,2.61l-2.14,2.51l-2.26,2.39l-2.38,2.28l-2.49,2.15l-2.6,2.03     l-2.68,1.88l-1.69,1.07l-2.04-0.57l-1.93-0.54l-0.54,1.93l-0.57,2.04l-1.82,0.9l-3.01,1.31l-3.07,1.15l-3.13,0.99l-3.39,0.89     l-5.78,1.52l-1.69,0.44l0.21,1.73l1.46,12.02l0.21,1.76h1.77h112.75l1.54,1.54l1.41,1.41l1.41-1.41l1.54-1.54h87.73h2v-2V1216.8     l1.54-1.54l1.41-1.41l-1.41-1.41l-1.54-1.54v-116.63V1092.26L871.66,1092.26z"/>
			<path fill="#6D6E71 icc-named-color(ASGCOLORS, LASER)" d="M1068.48,1092.99l6.8,0.74l-0.74,6.89l-1.64,15.35l1.89,2.34l-2.34,1.89l-5.15,48.17l1.89,2.34     l-2.34,1.89l-1.64,15.35l-0.94,8.75l-6.79-0.73l-0.51,0.36l-1.9,1.61l-1.8,1.85l-1.25,1.44l-1.08,1.48l-0.95,1.57l-0.82,1.64     l-0.71,1.77l-0.57,1.82l-0.14,0.64l1.76,2.44l-2.44,1.75l-0.45,3.3l-0.37,4.01l-0.2,4.02l-0.03,4.02l0.15,4.02l0.32,4.01     l0.49,3.99l0.66,3.97l0.83,3.94l1,3.9l1.16,3.85l1.32,3.8l1.49,3.73l1.65,3.67l1.8,3.59l1.95,3.51l1.79,2.89l1.93,2.8l2.07,2.69     l2.2,2.58l2.33,2.47l2.45,2.35l2.56,2.22l2.68,2.09l2.76,1.94l2.48,1.57l2.9-0.81l0.81,2.89l2.66,1.32l3.1,1.35l3.17,1.19     l3.22,1.03l3.44,0.91l5.78,1.52l-1.46,12.02H992.12l-2.12,2.12l-2.12-2.12h-88.55V1214.7l-2.12-2.12l2.12-2.12v-117.46H1068.48      M1068.59,1090.99h-0.11H899.31h-2v2v116.63l-1.54,1.54l-1.41,1.41l1.41,1.41l1.54,1.54v105.16v2h2h87.73l1.54,1.54l1.41,1.41     l1.41-1.41l1.54-1.54h112.75h1.77l0.21-1.76l1.46-12.02l0.21-1.73l-1.69-0.44l-5.78-1.52l-3.39-0.89l-3.13-0.99l-3.07-1.15     l-3.01-1.31l-1.82-0.9l-0.57-2.04l-0.54-1.93l-1.93,0.54l-2.04,0.57l-1.69-1.07l-2.68-1.88l-2.6-2.03l-2.49-2.15l-2.38-2.28     l-2.26-2.39l-2.13-2.51l-2.01-2.61l-1.87-2.71l-1.74-2.81l-1.91-3.43l-1.76-3.52l-1.61-3.59l-1.46-3.65l-1.3-3.72l-1.14-3.77     l-0.98-3.81l-0.81-3.85l-0.65-3.89l-0.48-3.91l-0.31-3.93l-0.14-3.93l0.03-3.94l0.2-3.93l0.36-3.92l0.33-2.4l1.74-1.25l1.63-1.17     l-1.17-1.63l-1.21-1.69l0.43-1.38l0.65-1.62l0.75-1.5l0.87-1.43l0.98-1.35l1.15-1.33l1.7-1.74l1.61-1.37l6.01,0.65l1.99,0.22     l0.21-1.99l0.94-8.75l1.55-14.53l1.7-1.37l1.56-1.26l-1.26-1.56l-1.37-1.7l4.97-46.52l1.7-1.37l1.56-1.26l-1.26-1.56l-1.37-1.69     l1.55-14.53l0.74-6.88l0.21-1.99l-1.99-0.22l-6.8-0.74L1068.59,1090.99L1068.59,1090.99z"/>
			<g fill="#000000 icc-named-color(ASGCOLORS, BLACK)">
				<polygon fill="#FFFFFF icc-named-color(ASGCOLORS, WHITE)" points="1101.68,550.51 1101.29,550.51 1101.29,553.55 1102.98,553.55 1102.98,553.22 1101.68,553.22           "/>
				<path fill="#000000 icc-named-color(ASGCOLORS, BLACK)" d="M1102.98,552.97h-1.05v-2.46v-0.25h-0.25h-0.39h-0.25v0.25v3.03v0.25h0.25h1.69h0.25v-0.25v-0.33v-0.25H1102.98z       M1102.98,553.55h-1.69v-3.03h0.39v2.71h1.3V553.55z"/>
			</g>
			<g fill="#000000 icc-named-color(ASGCOLORS, BLACK)">
				<polygon fill="#FFFFFF icc-named-color(ASGCOLORS, WHITE)" points="426.53,1033.83 426.14,1033.83 426.14,1036.87 427.82,1036.87 427.82,1036.54 426.53,1036.54           "/>
				<path fill="#000000 icc-named-color(ASGCOLORS, BLACK)" d="M427.82,1036.29h-1.05v-2.46v-0.25h-0.25h-0.39h-0.25v0.25v3.03v0.25h0.25h1.69h0.25v-0.25v-0.33v-0.25H427.82z       M427.82,1036.87h-1.69v-3.03h0.39v2.71h1.3V1036.87z"/>
			</g>
			<g fill="#000000 icc-named-color(ASGCOLORS, BLACK)">
				<polygon fill="#FFFFFF icc-named-color(ASGCOLORS, WHITE)" points="164.89,1304.04 164.5,1304.04 164.5,1307.07 166.19,1307.07 166.19,1306.75 164.89,1306.75           "/>
				<path fill="#000000 icc-named-color(ASGCOLORS, BLACK)" d="M166.19,1306.5h-1.05v-2.46v-0.25h-0.25h-0.39h-0.25v0.25v3.03v0.25h0.25h1.69h0.25v-0.25v-0.33v-0.25H166.19z       M166.19,1307.07h-1.69v-3.03h0.39v2.71h1.3V1307.07z"/>
			</g>
			<g fill="#000000 icc-named-color(ASGCOLORS, BLACK)">
				<polygon fill="#FFFFFF icc-named-color(ASGCOLORS, WHITE)" points="610.98,1303.74 610.59,1303.74 610.59,1306.78 612.27,1306.78 612.27,1306.45 610.98,1306.45           "/>
				<path fill="#000000 icc-named-color(ASGCOLORS, BLACK)" d="M612.27,1306.2h-1.05v-2.46v-0.25h-0.25h-0.39h-0.25v0.25v3.03v0.25h0.25h1.69h0.25v-0.25v-0.33v-0.25H612.27z       M612.27,1306.78h-1.69v-3.03h0.39v2.71h1.3V1306.78z"/>
			</g>
			<g fill="#000000 icc-named-color(ASGCOLORS, BLACK)">
				<polygon fill="#FFFFFF icc-named-color(ASGCOLORS, WHITE)" points="290.53,1428.33 290.14,1428.33 290.14,1431.37 291.82,1431.37 291.82,1431.04 290.53,1431.04           "/>
				<path fill="#000000 icc-named-color(ASGCOLORS, BLACK)" d="M291.82,1430.79h-1.05v-2.46v-0.25h-0.25h-0.39h-0.25v0.25v3.03v0.25h0.25h1.69h0.25v-0.25v-0.33v-0.25H291.82z       M291.82,1431.37h-1.69v-3.03h0.39v2.71h1.3V1431.37z"/>
			</g>
			<g fill="#000000 icc-named-color(ASGCOLORS, BLACK)">
				<polygon fill="#FFFFFF icc-named-color(ASGCOLORS, WHITE)" points="665.44,1317.13 665.05,1317.13 665.05,1320.16 666.74,1320.16 666.74,1319.83 665.44,1319.83           "/>
				<path fill="#000000 icc-named-color(ASGCOLORS, BLACK)" d="M666.74,1319.58h-1.05v-2.46v-0.25h-0.25h-0.39h-0.25v0.25v3.03v0.25h0.25h1.69h0.25v-0.25v-0.33v-0.25H666.74z       M666.74,1320.16h-1.69v-3.03h0.39v2.71h1.3V1320.16z"/>
			</g>
			<g fill="#000000 icc-named-color(ASGCOLORS, BLACK)">
				<polygon fill="#FFFFFF icc-named-color(ASGCOLORS, WHITE)" points="90.47,1341.22 90.08,1341.22 90.08,1344.25 91.77,1344.25 91.77,1343.92 90.47,1343.92     "/>
				<path fill="#000000 icc-named-color(ASGCOLORS, BLACK)" d="M91.77,1343.67h-1.05v-2.46v-0.25h-0.25h-0.39h-0.25v0.25v3.03v0.25h0.25h1.69h0.25v-0.25v-0.33v-0.25H91.77z       M91.77,1344.25h-1.69v-3.03h0.39v2.71h1.3V1344.25z"/>
			</g>
			<g fill="#000000 icc-named-color(ASGCOLORS, BLACK)">
				<polygon fill="#FFFFFF icc-named-color(ASGCOLORS, WHITE)" points="34.98,1111.39 34.6,1111.46 35.2,1114.44 36.86,1114.1 36.79,1113.78 35.52,1114.04     "/>
				<path fill="#000000 icc-named-color(ASGCOLORS, BLACK)" d="M36.74,1113.53l-1.03,0.21l-0.49-2.41l-0.05-0.24l-0.24,0.05l-0.38,0.08l-0.24,0.05l0.05,0.24l0.61,2.97l0.05,0.24      l0.24-0.05l1.65-0.34l0.24-0.05l-0.05-0.24l-0.07-0.32l-0.05-0.24L36.74,1113.53z M36.86,1114.1l-1.65,0.34l-0.61-2.97      l0.38-0.08l0.54,2.65l1.27-0.26L36.86,1114.1z"/>
			</g>
			<g fill="#000000 icc-named-color(ASGCOLORS, BLACK)">
				<polygon fill="#FFFFFF icc-named-color(ASGCOLORS, WHITE)" points="1101.1,893.57 1100.71,893.5 1100.17,896.48 1101.84,896.78 1101.89,896.46 1100.62,896.23           "/>
				<path fill="#000000 icc-named-color(ASGCOLORS, BLACK)" d="M1101.94,896.21l-1.03-0.18l0.43-2.42l0.04-0.25l-0.25-0.04l-0.39-0.07l-0.25-0.04l-0.04,0.25l-0.54,2.99l-0.04,0.25      l0.25,0.04l1.66,0.3l0.25,0.04l0.04-0.25l0.06-0.32l0.04-0.25L1101.94,896.21z M1101.84,896.78l-1.66-0.3l0.54-2.99l0.39,0.07      l-0.48,2.66l1.28,0.23L1101.84,896.78z"/>
			</g>
			<g fill="#000000 icc-named-color(ASGCOLORS, BLACK)">
				<polygon fill="#FFFFFF icc-named-color(ASGCOLORS, WHITE)" points="984.45,735.2 984.06,735.2 984.06,738.24 985.75,738.24 985.75,737.91 984.45,737.91     "/>
				<path fill="#000000 icc-named-color(ASGCOLORS, BLACK)" d="M985.75,737.66h-1.05v-2.46v-0.25h-0.25h-0.39h-0.25v0.25v3.03v0.25h0.25h1.69H986v-0.25v-0.33v-0.25H985.75z       M985.75,738.24h-1.69v-3.03h0.39v2.71h1.3V738.24z"/>
			</g>
			<g fill="#000000 icc-named-color(ASGCOLORS, BLACK)">
				<polygon fill="#FFFFFF icc-named-color(ASGCOLORS, WHITE)" points="878.46,622.19 878.85,622.19 878.85,619.15 877.16,619.15 877.16,619.48 878.46,619.48     "/>
				<path fill="#000000 icc-named-color(ASGCOLORS, BLACK)" d="M877.16,619.73h1.05v2.46v0.25h0.25h0.39h0.25v-0.25v-3.03v-0.25h-0.25h-1.69h-0.25v0.25v0.33v0.25H877.16z       M877.16,619.15h1.69v3.03h-0.39v-2.71h-1.3V619.15z"/>
			</g>
			<g fill="#000000 icc-named-color(ASGCOLORS, BLACK)">
				<polygon fill="#FFFFFF icc-named-color(ASGCOLORS, WHITE)" points="538.74,560.21 538.35,560.21 538.35,563.25 540.04,563.25 540.04,562.92 538.74,562.92     "/>
				<path fill="#000000 icc-named-color(ASGCOLORS, BLACK)" d="M540.04,562.67h-1.05v-2.46v-0.25h-0.25h-0.39h-0.25v0.25v3.03v0.25h0.25h1.69h0.25v-0.25v-0.33v-0.25H540.04z       M540.04,563.25h-1.69v-3.03h0.39v2.71h1.3V563.25z"/>
			</g>
			<g fill="#000000 icc-named-color(ASGCOLORS, BLACK)">
				<polygon fill="#FFFFFF icc-named-color(ASGCOLORS, WHITE)" points="458.93,1429.44 458.54,1429.44 458.54,1432.47 460.23,1432.47 460.23,1432.14 458.93,1432.14           "/>
				<path fill="#000000 icc-named-color(ASGCOLORS, BLACK)" d="M460.23,1431.89h-1.05v-2.46v-0.25h-0.25h-0.39h-0.25v0.25v3.03v0.25h0.25h1.69h0.25v-0.25v-0.33v-0.25H460.23z       M460.23,1432.47h-1.69v-3.03h0.39v2.71h1.3V1432.47z"/>
			</g>
			<g fill="#000000 icc-named-color(ASGCOLORS, BLACK)">
				<polygon fill="#FFFFFF icc-named-color(ASGCOLORS, WHITE)" points="1103.36,1315.62 1102.97,1315.62 1102.97,1318.65 1104.66,1318.65 1104.66,1318.32       1103.36,1318.32     "/>
				<path fill="#000000 icc-named-color(ASGCOLORS, BLACK)" d="M1104.66,1318.07h-1.05v-2.46v-0.25h-0.25h-0.39h-0.25v0.25v3.03v0.25h0.25h1.69h0.25v-0.25v-0.33v-0.25H1104.66z       M1104.66,1318.65h-1.69v-3.03h0.39v2.71h1.3V1318.65z"/>
			</g>
			<g fill="#000000 icc-named-color(ASGCOLORS, BLACK)">
				<polygon fill="#FFFFFF icc-named-color(ASGCOLORS, WHITE)" points="717.12,1431.38 716.73,1431.38 716.73,1434.41 718.42,1434.41 718.42,1434.08 717.12,1434.08           "/>
				<path fill="#000000 icc-named-color(ASGCOLORS, BLACK)" d="M718.42,1433.83h-1.05v-2.46v-0.25h-0.25h-0.39h-0.25v0.25v3.03v0.25h0.25h1.69h0.25v-0.25v-0.33v-0.25H718.42z       M718.42,1434.41h-1.69v-3.03h0.39v2.71h1.3V1434.41z"/>
			</g>
			<path fill="#6D6E71 icc-named-color(ASGCOLORS, LASER)" d="M846.86,25.7l2.13,2.13l211.87,0h6.83v56.68l0.18,6.74l0.3,6.77l0.41,6.76l0.52,6.75l0.04,0.45l2.32,1.92     l-1.92,2.32l0.2,2.06l0.3,2.68l2.35,1.88l-1.88,2.35l0.84,6.54l0.97,6.67l0.6,3.51l0.7,3.46l0.81,3.44l0.91,3.41l0.99,3.29     l3.79,10.35l0.86,2.34l0.89,2.09l1,2l1.12,1.94l1.24,1.87l1.34,1.78l1.45,1.7l1.53,1.58l1.04,0.93l1.08,0.81l1.15,0.71l1.2,0.61     l1.24,0.51l1.29,0.4l1.31,0.28l1.62,0.21l6.96,0.88l-1.05,6.98l-5.51,36.63l-7.47,51.42l-0.41,3.86l-0.64,7.98l-0.36,7.96     l-0.08,7.97l0.36,14.51l0.81,21.05l0.67,12.89l2.23,2.01l-2.01,2.24l0.2,3.95l0.66,10.49l1.52,20.98l2.22,25.3l2.35,25.28     l0.75,7.15l0.88,7.17l0.03,0.24l0.02,0.25l1.32,25.57l1.32,25.65l0.01,0.17l0,0.18v40.27l-2.75,0.64l-44.22,10.25l-0.36,0.08     l-0.36,0.07l-12.15,2.3l-0.1,0.02l-0.09,0.02l-12.17,2.17l-0.09,0.02l-0.09,0.02l-12.2,2.04l-0.18,0.03l-12.21,1.92l-0.09,0.02     l-0.09,0.01l-12.23,1.79l-0.18,0.02l-12.25,1.67l-0.1,0.01l-0.09,0.01l-12.27,1.54l-0.09,0.01l-0.1,0.01l-12.28,1.41l-0.12,0.01     l-0.12,0.01l-8.22,0.84l-0.28,0.03l-8.23,0.71l-0.14,0.01l-0.14,0.01l-8.24,0.58l-0.14,0.01l-0.14,0.01l-8.25,0.45l-0.14,0.01     l-0.14,0.01l-8.26,0.32l-0.14,0l-0.14,0l-8.26,0.19l-0.14,0l-0.14,0l-8.26,0.06h-0.28l-8.15-0.06l-42.52,0.16h-0.14l-42.52-0.16     l-8.16,0.07l-0.14,0l-0.14,0l-8.26-0.06h-0.14l-0.14,0l-8.26-0.19l-0.28-0.01l-8.26-0.32l-0.14-0.01l-0.14-0.01l-8.25-0.45     l-0.14-0.01l-0.14-0.01l-8.24-0.58l-0.14-0.01l-0.14-0.01l-8.23-0.7l-0.14-0.01l-0.14-0.01l-8.22-0.84l-0.12-0.01l-0.12-0.01     l-12.28-1.41l-0.09-0.01l-0.1-0.01l-12.26-1.54l-0.1-0.01l-0.09-0.01l-12.25-1.67l-0.18-0.02l-12.23-1.79l-0.09-0.01l-0.09-0.02     l-12.21-1.92l-0.09-0.02l-0.09-0.01l-12.19-2.05l-0.19-0.03l-12.17-2.17l-0.09-0.02l-0.09-0.02l-12.15-2.3l-0.36-0.07l-0.36-0.08     l-44.22-10.26l-2.74-0.64v-40.26l0-0.18l0.01-0.17l1.32-25.65l1.32-25.58l0.02-0.24l0.03-0.24l0.88-7.17l0.75-7.15l2.35-25.27     l2.22-25.31l1.52-20.98l0.65-10.49l0.21-3.95l-2.01-2.24l2.24-2.01l0.67-12.89l0.81-21.05l0.36-14.52l-0.08-7.97l-0.35-7.96     l-0.64-7.98l-0.41-3.86l-3.73-25.71l-3.74-25.71l-5.51-36.63l-1.05-6.98l6.96-0.88l1.62-0.21l1.31-0.28l1.29-0.4l1.25-0.51     l1.2-0.61l1.14-0.71l1.08-0.81l1.04-0.92l1.52-1.58l1.45-1.7l1.34-1.78l1.24-1.87l1.12-1.94l1-2l0.89-2.09l0.86-2.34l3.79-10.35     l0.99-3.29l0.91-3.41l0.81-3.44l0.7-3.46l0.6-3.51l0.97-6.67l0.84-6.54v0l-1.88-2.35l2.35-1.88l0.3-2.68l0.2-2.06l-1.92-2.32     l2.32-1.92l0.04-0.45l0.52-6.75l0.41-6.76l0.3-6.77l0.18-6.74v-49.8l0-6.88h218.7L846.86,25.7 M846.86,22.87l-1.41,1.42     l-1.54,1.54H626.03h-2l0,2l0,6.88v49.77l-0.18,6.69l-0.3,6.74l-0.41,6.72l-0.49,6.33l-1.67,1.38l-1.54,1.27l1.27,1.54l1.39,1.68     l-0.12,1.22l-0.21,1.84l-1.7,1.36l-1.56,1.25l1.25,1.56l1.35,1.68l-0.73,5.68l-0.96,6.63l-0.59,3.46l-0.69,3.4l-0.79,3.37     l-0.89,3.35l-0.96,3.21l-3.77,10.29l-0.84,2.29l-0.85,1.99l-0.95,1.89l-1.06,1.83l-1.17,1.76l-1.27,1.69l-1.37,1.6l-1.43,1.48     l-0.92,0.82l-0.94,0.71l-1,0.62l-1.05,0.53l-1.08,0.44l-1.12,0.34l-1.15,0.25l-1.54,0.2l-6.95,0.88l-2.03,0.26l0.3,2.02     l1.05,6.98l5.51,36.63l3.73,25.7l3.73,25.67l0.4,3.8l0.63,7.92l0.35,7.89l0.08,7.9l-0.36,14.47l-0.81,21.02l-0.63,12.05     l-1.62,1.46l-1.49,1.34l1.34,1.49l1.46,1.62l-0.16,3.11l-0.65,10.47l-1.52,20.96l-2.22,25.29l-2.35,25.25l-0.75,7.11l-0.88,7.16     l0,0.02l0,0.02l-0.03,0.24l0,0.03l0,0.03l-0.02,0.24l0,0.02l0,0.02l-1.32,25.58l-1.33,25.65l0,0.01l0,0.01l-0.01,0.17l0,0.03     l0,0.03l0,0.18l0,0.01v0.01v40.26v1.59l1.55,0.36l2.74,0.64l44.23,10.26l0.01,0l0.01,0l0.36,0.08l0.02,0l0.02,0l0.36,0.07l0.01,0     l0.01,0l12.12,2.29l0.08,0.02l0.05,0.01l0.05,0.01l0.08,0.01l12.16,2.17l0.02,0l0.02,0l0.18,0.03l12.18,2.05l0.01,0l0.01,0     l0.1,0.01l0.08,0.01l12.22,1.92l0.08,0.01l0.03,0.01l0.03,0l0.08,0.01l12.22,1.79l0.01,0l0.01,0l0.18,0.02l12.25,1.66l0.09,0.01     l0.1,0.01l12.28,1.54l0.02,0l0.02,0l0.07,0.01l0.06,0.01l0.02,0l0.02,0l12.28,1.41l0.01,0l0.01,0l0.12,0.01l0.12,0.01l8.23,0.84     l0.13,0.01l0.02,0l0.02,0l0.14,0.01l8.24,0.71l0.13,0.01l0.02,0l0.02,0l0.14,0.01l8.24,0.58l0.14,0.01l0.02,0l0.02,0l0.14,0.01     l8.25,0.45l0.14,0.01l0.02,0l0.02,0l0.14,0.01l8.25,0.32l0.29,0.01l0.01,0l0.01,0l8.26,0.19l0.15,0l0.02,0h0.02h0.13l8.24,0.06     l0.13,0l0.04,0l0.04,0l0.14,0l8.13-0.06l42.51,0.16h0.15l42.52-0.16l8.14,0.06l0.01,0h0.01h0.28h0.01l0.01,0l8.26-0.06l0.01,0     l0.01,0l0.14,0l0.14,0l8.27-0.19l0.13,0l0.02,0l0.02,0l0.14-0.01l8.26-0.32l0.01,0l0.01,0l0.14-0.01l0.14-0.01l8.25-0.45l0.02,0     l0.02,0l0.12-0.01l0.13-0.01l0.02,0l0.02,0l8.24-0.58l0.02,0l0.02,0l0.13-0.01l0.12-0.01l0.01,0l0.01,0l8.23-0.71l0.29-0.03     l0.01,0l0.01,0l8.22-0.83l0.13-0.01l0.12-0.01l0.01,0l0.01,0l12.27-1.41l0.09-0.01l0.03,0l0.03,0l0.08-0.01l12.26-1.53l0.01,0     l0.01,0l0.09-0.01l0.09-0.01l12.26-1.67l0.18-0.02l0.01,0l0.01,0l12.22-1.79l0.08-0.01l0.03,0l0.03-0.01l0.09-0.02l12.2-1.92     l0.2-0.03l12.2-2.05l0.02,0l0.02,0l0.07-0.01l0.06-0.01l0.02,0l0.02,0l12.15-2.17l0.08-0.01l0.02,0l0.02,0l0.1-0.02l0.01,0     l0.01,0l12.15-2.3l0.01,0l0.01,0l0.36-0.07l0.02,0l0.02,0l0.36-0.08l0.01,0l0.01,0l44.22-10.26l2.75-0.63l1.55-0.36v-1.59v-40.27     v-0.01l0-0.01l0-0.18l0-0.03l0-0.03l-0.01-0.17l0-0.01l0-0.01l-1.32-25.65l-1.32-25.58l0-0.02l0-0.02l-0.02-0.25l0-0.03l0-0.03     l-0.03-0.24l0-0.02l0-0.02l-0.88-7.15l-0.74-7.11l-2.35-25.27l-2.22-25.28l-1.52-20.96l-0.65-10.47l-0.16-3.11l1.46-1.62     l1.34-1.49l-1.49-1.34l-1.62-1.46l-0.63-12.05l-0.81-21.03l-0.36-14.46l0.08-7.9l0.35-7.89l0.63-7.92l0.4-3.8l7.46-51.38     l5.51-36.62l1.05-6.98l0.3-2.02l-2.03-0.26l-6.96-0.88l-1.54-0.19l-1.15-0.25l-1.12-0.34l-1.09-0.44l-1.05-0.53l-1-0.62     l-0.94-0.7l-0.92-0.82l-1.43-1.48l-1.37-1.6l-1.27-1.69l-1.17-1.76l-1.06-1.83l-0.95-1.89l-0.85-1.99l-0.84-2.29l-3.77-10.29     l-0.96-3.21l-0.89-3.35l-0.79-3.38l-0.69-3.4l-0.59-3.46l-0.96-6.63l-0.73-5.68l1.35-1.69l1.25-1.56l-1.56-1.25l-1.7-1.36     l-0.21-1.85l-0.12-1.22l1.39-1.68l1.28-1.54l-1.54-1.27l-1.67-1.38l-0.49-6.33l-0.41-6.73l-0.3-6.73l-0.18-6.69V27.83v-2h-2     h-6.83l-211.04,0l-1.54-1.54L846.86,22.87L846.86,22.87z"/>
			<path fill="#6D6E71 icc-named-color(ASGCOLORS, LASER)" d="M91.01,1146.7l3.47,2.06l4.89,2.91l7.58,4.51l0.74,0.51l0.67,0.6l4.1,4.22l0.08,0.09l0.08,0.09l3.95,4.36     l0.08,0.09l0.08,0.09l3.8,4.5l0.08,0.09l0.08,0.09l3.64,4.63l0.07,0.09l0.08,0.1l3.48,4.75l0.07,0.1l0.07,0.1l3.31,4.87l0.07,0.1     l0.07,0.1l3.14,4.99l0.06,0.1l0.06,0.1l2.96,5.1l0.06,0.1l0.06,0.1l3,5.59l0.05,0.1l0.05,0.1l2.82,5.69l0.05,0.1l0.05,0.1     l2.64,5.78l0.05,0.1l0.04,0.1l2.45,5.86l0.04,0.1l0.04,0.11l2.26,5.94l0.04,0.1l0.04,0.11l2.07,6.01l0.04,0.11l0.03,0.11     l1.87,6.07l0.03,0.11l0.03,0.11l1.67,6.13l0.25,0.92l0.25,0.92l-0.25,0.92l-0.25,0.91l-1.68,6.13l-0.03,0.11l-0.03,0.11     l-1.88,6.07l-0.03,0.11l-0.04,0.11l-2.08,6.01l-0.04,0.11l-0.04,0.1l-2.27,5.93l-0.04,0.11l-0.04,0.1l-2.46,5.86l-0.04,0.1     l-0.05,0.1l-2.65,5.77l-0.05,0.1l-0.05,0.1l-2.83,5.68l-0.05,0.1l-0.05,0.1l-3.01,5.59l-0.06,0.1l-0.06,0.1l-2.97,5.09l-0.06,0.1     l-0.06,0.1l-3.15,4.98l-0.07,0.1l-0.07,0.1l-3.32,4.87l-0.07,0.1l-0.07,0.1l-3.49,4.75l-0.08,0.1l-0.07,0.09l-3.65,4.62     l-0.08,0.09l-0.08,0.09l-3.81,4.49l-0.08,0.09l-0.08,0.09l-3.96,4.35l-0.08,0.09l-0.08,0.09l-4.11,4.21l-0.67,0.6l-0.74,0.51     l-7.59,4.49l-4.9,2.9l-3.47,2.05l-3.47-2.06l-4.89-2.91l-7.58-4.51l-0.74-0.51l-0.67-0.6l-4.1-4.22l-0.08-0.09l-0.08-0.09     l-3.95-4.36l-0.08-0.09l-0.08-0.09l-3.8-4.5l-0.08-0.09l-0.08-0.09l-3.64-4.63l-0.07-0.09l-0.08-0.1l-3.48-4.75l-0.07-0.1     l-0.07-0.1l-3.31-4.87l-0.07-0.1l-0.07-0.1l-3.14-4.99l-0.06-0.1l-0.06-0.1l-2.96-5.1l-0.06-0.1l-0.06-0.1l-3-5.59l-0.05-0.1     l-0.05-0.1l-2.82-5.69l-0.05-0.1l-0.05-0.1l-2.64-5.78l-0.05-0.1l-0.04-0.1l-2.45-5.86l-0.04-0.1l-0.04-0.11l-2.26-5.94     l-0.04-0.1l-0.04-0.11l-2.07-6.01l-0.04-0.11l-0.03-0.11l-1.87-6.07l-0.03-0.11l-0.03-0.11l-1.67-6.13l-0.25-0.92l-0.25-0.92     l0.25-0.92l0.25-0.92l1.68-6.13l0.03-0.11l0.03-0.11l1.88-6.07l0.03-0.11l0.04-0.11l2.08-6.01l0.04-0.11l0.04-0.1l2.27-5.93     l0.04-0.11l0.04-0.1l2.46-5.86l0.04-0.1l0.05-0.1l2.65-5.77l0.05-0.1l0.05-0.1l2.83-5.68l0.05-0.1l0.05-0.1l3.01-5.59l0.06-0.1     l0.06-0.1l2.97-5.09l0.06-0.1l0.06-0.1l3.15-4.98l0.07-0.1l0.07-0.1l3.32-4.87l0.07-0.1l0.07-0.1l3.49-4.75l0.08-0.1l0.07-0.09     l3.65-4.62l0.08-0.09l0.08-0.09l3.81-4.49l0.08-0.09l0.08-0.09l3.96-4.35l0.08-0.09l0.08-0.09l4.11-4.21l0.67-0.6l0.74-0.51     l7.59-4.49l4.9-2.9L91.01,1146.7 M91.01,1144.38l-1.02,0.6l-3.47,2.05l-4.9,2.9l-7.59,4.49l-0.06,0.03l-0.05,0.04l-0.74,0.51     l-0.11,0.07l-0.1,0.09l-0.67,0.6l-0.05,0.04l-0.05,0.05l-4.11,4.21l-0.01,0.01l-0.01,0.01l-0.08,0.09l-0.01,0.01l-0.01,0.01     l-0.08,0.09l-0.01,0.01l-0.01,0.01l-3.96,4.35l-0.01,0.01l-0.01,0.01l-0.08,0.09l-0.01,0.01l-0.01,0.01l-0.08,0.09l-0.01,0.01     l-0.01,0.01l-3.81,4.49l-0.01,0.01l-0.01,0.01l-0.08,0.09l-0.01,0.01l-0.01,0.01l-0.08,0.09l-0.01,0.01l-0.01,0.01l-3.65,4.62     l-0.01,0.01l-0.01,0.01l-0.07,0.09l-0.01,0.01l-0.01,0.01l-0.08,0.1l-0.01,0.01l-0.01,0.01l-3.49,4.75l-0.01,0.01l-0.01,0.01     l-0.07,0.1l-0.01,0.01l-0.01,0.01l-0.07,0.1l-0.01,0.01l-0.01,0.01l-3.32,4.87l0,0.01l0,0.01l-0.07,0.1l-0.01,0.01l-0.01,0.01     l-0.07,0.1l0,0.01l0,0.01l-3.15,4.98l0,0.01l0,0.01l-0.06,0.1l-0.01,0.02l-0.01,0.02l-0.06,0.1l0,0.01l0,0.01l-2.97,5.09l0,0.01     l0,0.01l-0.06,0.1l-0.01,0.01l-0.01,0.01l-0.06,0.1l0,0.01l0,0.01l-3.01,5.59l0,0.01l0,0.01l-0.05,0.1l-0.01,0.01l-0.01,0.01     l-0.05,0.1l0,0.01l0,0.01l-2.83,5.68l0,0.01l0,0.01l-0.05,0.1l-0.01,0.02l-0.01,0.02l-0.05,0.1l0,0.01l0,0.01l-2.65,5.77l0,0.01     l0,0.01l-0.05,0.1l-0.01,0.02l-0.01,0.02l-0.04,0.1l0,0.01l0,0.01l-2.46,5.86l0,0.01l0,0.01l-0.04,0.1l-0.01,0.01l-0.01,0.01     l-0.04,0.11l0,0.01l0,0.01l-2.27,5.93l0,0.01l0,0.01l-0.04,0.1l-0.01,0.01l-0.01,0.01l-0.04,0.11l0,0.01l0,0.01l-2.08,6.01     l0,0.01l0,0.01l-0.04,0.11l-0.01,0.02l0,0.02l-0.03,0.11l0,0.01l0,0.01l-1.88,6.07l0,0.01l0,0.01l-0.03,0.11l0,0.01l0,0.01     l-0.03,0.11l0,0.01l0,0.01l-1.68,6.13l-0.25,0.92l-0.25,0.92l-0.15,0.53l0.14,0.53l0.25,0.92l0.25,0.92l1.67,6.13l0,0.01l0,0.01     l0.03,0.11l0,0.02l0,0.02l0.03,0.11l0,0.01l0,0.01l1.87,6.07l0,0.01l0,0.01l0.03,0.11l0,0.02l0.01,0.02l0.04,0.11l0,0.01l0,0.01     l2.07,6.01l0,0.01l0,0.01l0.04,0.11l0.01,0.02l0.01,0.02l0.04,0.1l0,0.01l0,0.01l2.26,5.94l0,0.01l0,0.01l0.04,0.11l0.01,0.02     l0.01,0.02l0.04,0.1l0,0.01l0,0.01l2.45,5.86l0,0.01l0,0.01l0.04,0.1l0.01,0.01l0.01,0.01l0.05,0.1l0,0.01l0,0.01l2.64,5.78     l0,0.01l0,0.01l0.05,0.1l0.01,0.01l0.01,0.01l0.05,0.1l0,0.01l0,0.01l2.82,5.69l0,0.01l0,0.01l0.05,0.1l0.01,0.01l0.01,0.01     l0.05,0.1l0,0.01l0,0.01l3,5.59l0,0.01l0,0.01l0.06,0.1l0.01,0.01l0.01,0.01l0.06,0.1l0,0.01l0,0.01l2.96,5.1l0,0.01l0,0.01     l0.06,0.1l0.01,0.01l0.01,0.01l0.06,0.1l0,0.01l0,0.01l3.14,4.99l0,0.01l0,0.01l0.07,0.1l0.01,0.01l0.01,0.01l0.07,0.1l0,0.01     l0,0.01l3.31,4.87l0,0.01l0,0.01l0.07,0.1l0.01,0.01l0.01,0.01l0.07,0.1l0,0.01l0.01,0.01l3.48,4.75l0.01,0.01l0.01,0.01     l0.08,0.1l0.01,0.01l0.01,0.01l0.07,0.09l0.01,0.01l0.01,0.01l3.64,4.63l0.01,0.01l0.01,0.01l0.08,0.09l0.01,0.01l0.01,0.01     l0.08,0.09l0.01,0.01l0.01,0.01l3.8,4.5l0.01,0.01l0.01,0.01l0.08,0.09l0.01,0.01l0.01,0.01l0.08,0.09l0.01,0.01l0.01,0.01     l3.95,4.36l0.01,0.01l0.01,0.01l0.08,0.09l0.01,0.01l0.01,0.01l0.08,0.09l0.01,0.01l0.01,0.01l4.1,4.22l0.05,0.05l0.05,0.04     l0.67,0.6l0.1,0.09l0.11,0.07l0.74,0.51l0.05,0.04l0.06,0.03l7.58,4.51l4.89,2.91l3.47,2.06l1.02,0.61l1.02-0.6l3.47-2.05     l4.9-2.9l7.59-4.49l0.06-0.03l0.05-0.04l0.74-0.51l0.11-0.07l0.1-0.09l0.67-0.6l0.05-0.04l0.05-0.05l4.11-4.21l0.01-0.01     l0.01-0.01l0.08-0.09l0.01-0.01l0.01-0.01l0.08-0.09l0.01-0.01l0.01-0.01l3.96-4.35l0.01-0.01l0.01-0.01l0.08-0.09l0.01-0.01     l0.01-0.01l0.08-0.09l0.01-0.01l0.01-0.01l3.81-4.49l0.01-0.01l0.01-0.01l0.08-0.09l0.01-0.01l0.01-0.01l0.08-0.09l0.01-0.01     l0.01-0.01l3.65-4.62l0.01-0.01l0.01-0.01l0.07-0.09l0.01-0.01l0.01-0.01l0.08-0.1l0.01-0.01l0.01-0.01l3.49-4.75l0.01-0.01     l0.01-0.01l0.07-0.1l0.01-0.01l0.01-0.01l0.07-0.1l0.01-0.01l0.01-0.01l3.32-4.87l0.01-0.01l0.01-0.01l0.07-0.1l0.01-0.01     l0.01-0.01l0.07-0.1l0-0.01l0-0.01l3.15-4.98l0-0.01l0-0.01l0.06-0.1l0.01-0.02l0.01-0.02l0.06-0.1l0-0.01l0-0.01l2.97-5.09     l0-0.01l0-0.01l0.06-0.1l0.01-0.01l0.01-0.01l0.06-0.1l0-0.01l0-0.01l3.01-5.59l0-0.01l0-0.01l0.05-0.1l0.01-0.01l0.01-0.01     l0.05-0.1l0-0.01l0-0.01l2.83-5.68l0-0.01l0-0.01l0.05-0.1l0.01-0.01l0.01-0.01l0.05-0.1l0-0.01l0-0.01l2.65-5.77l0-0.01l0-0.01     l0.05-0.1l0.01-0.01l0.01-0.01l0.04-0.1l0-0.01l0-0.01l2.46-5.86l0-0.01l0-0.01l0.04-0.1l0.01-0.01l0.01-0.01l0.04-0.11l0-0.01     l0-0.01l2.27-5.93l0-0.01l0-0.01l0.04-0.1l0.01-0.02l0.01-0.02l0.04-0.11l0-0.01l0-0.01l2.08-6.01l0-0.01l0-0.01l0.04-0.11     l0.01-0.02l0.01-0.02l0.03-0.11l0-0.01l0-0.01l1.88-6.07l0-0.01l0-0.01l0.03-0.11l0-0.02l0-0.02l0.03-0.11l0-0.01l0-0.01     l1.68-6.13l0.25-0.92l0.25-0.91l0.15-0.53l-0.14-0.53l-0.25-0.92l-0.25-0.92l-1.67-6.13l0-0.01l0-0.01l-0.03-0.11l0-0.02l0-0.02     l-0.03-0.11l0-0.01l0-0.01l-1.87-6.07l0-0.01l0-0.01l-0.03-0.11l0-0.01l0-0.01l-0.04-0.11l0-0.01l0-0.01l-2.07-6.01l0-0.01     l0-0.01l-0.04-0.11l-0.01-0.02l-0.01-0.02l-0.04-0.1l0-0.01l0-0.01l-2.26-5.94l0-0.01l0-0.01l-0.04-0.11l-0.01-0.01l-0.01-0.01     l-0.04-0.1l0-0.01l0-0.01l-2.45-5.86l0-0.01l0-0.01l-0.04-0.1l-0.01-0.02l-0.01-0.02l-0.05-0.1l0-0.01l0-0.01l-2.64-5.78l0-0.01     l0-0.01l-0.05-0.1l-0.01-0.02l-0.01-0.02l-0.05-0.1l0-0.01l0-0.01l-2.82-5.69l0-0.01l0-0.01l-0.05-0.1l-0.01-0.01l-0.01-0.01     l-0.05-0.1l0-0.01l0-0.01l-3-5.59l0-0.01l0-0.01l-0.06-0.1l-0.01-0.02l-0.01-0.02l-0.06-0.1l0-0.01l0-0.01l-2.96-5.1l0-0.01     l0-0.01l-0.06-0.1l-0.01-0.02l-0.01-0.02l-0.06-0.1l0-0.01l0-0.01l-3.14-4.99l0-0.01l0-0.01l-0.07-0.1l-0.01-0.01l-0.01-0.01     l-0.07-0.1l-0.01-0.01l-0.01-0.01l-3.31-4.87l-0.01-0.01l-0.01-0.01l-0.07-0.1l-0.01-0.01l-0.01-0.01l-0.07-0.1l-0.01-0.01     l-0.01-0.01l-3.48-4.75l-0.01-0.01l-0.01-0.01l-0.08-0.1l-0.01-0.01l-0.01-0.01l-0.07-0.09l-0.01-0.01l-0.01-0.01l-3.64-4.63     l-0.01-0.01l-0.01-0.01l-0.08-0.09l-0.01-0.01l-0.01-0.01l-0.08-0.09l-0.01-0.01l-0.01-0.01l-3.8-4.5l-0.01-0.01l-0.01-0.01     l-0.08-0.09l-0.01-0.01l-0.01-0.01l-0.08-0.09l-0.01-0.01l-0.01-0.01l-3.95-4.36l-0.01-0.01l-0.01-0.01l-0.08-0.09l-0.01-0.01     l-0.01-0.01l-0.08-0.09l-0.01-0.01l-0.01-0.01l-4.1-4.22l-0.05-0.05l-0.05-0.04l-0.67-0.6l-0.1-0.09l-0.11-0.07l-0.74-0.51     l-0.05-0.04l-0.06-0.03l-7.58-4.51l-4.89-2.91l-3.47-2.06L91.01,1144.38L91.01,1144.38z"/>
			<path fill="#6D6E71 icc-named-color(ASGCOLORS, LASER)" d="M414.56,23.35l2.13,2.12h88.55v36.97l-0.09,7.88l0.05,7.77l0.18,7.77l0.32,7.77l0.52,9.18l0.65,9.18     l0.79,9.15l2.33,1.82l-1.9,2.27l0.54,5.1l0.41,3.88l1.01,7.77l1.17,7.75l1.33,7.73l0.75,3.85l0.35,1.8l0.85,3.58l1,3.54     l1.14,3.48l0.65,1.7l0.41,1.08l0.98,2.13l1.11,2.1l1.23,2.04l1.32,1.95l1.45,1.9l1.54,1.8l1.64,1.72l0.86,0.8l0.45,0.42     l0.95,0.74l1.01,0.66l1.07,0.57l1.08,0.46l1.17,0.39l1.18,0.27l1.27,0.18l0.67,0.05l7.36,0.55l-1.1,7.34l-5.51,36.6l-7.46,51.37     l-0.24,2.94l-0.25,3.08l-0.39,6.49l-0.28,6.51l-0.18,6.52l-0.08,6.51l0.02,7.14l0.13,7.13l0.23,7.13l0.34,7.1l0.79,13.87     l0.12,1.85l2.25,1.99l-1.99,2.26l0.49,7.76l0.96,13.85l1.04,13.85l1.02,12.65l1.1,12.64l1.18,12.62l1.27,12.67l0.01,0.12     l0.01,0.12l4.29,65.71l0.01,0.22l0,0.23v41.29l-6.83,0H26.98v-41.3l0-0.23l0.01-0.22l2.15-32.86l2.15-32.84l0.01-0.12l0.01-0.12     l1.26-12.66l1.18-12.63l1.1-12.64l1.02-12.65l1.03-13.84l0.96-13.85l0.49-7.76l-1.99-2.26l2.26-1.99l-0.04,0.74l0.16-2.6     l0.79-13.87l0.34-7.1l0.23-7.13l0.13-7.13l0.02-7.14l-0.08-6.51l-0.18-6.52l-0.28-6.51l-0.39-6.49l-0.25-3.08l-0.24-2.94     l-7.46-51.37l-5.5-36.6l-1.1-7.34l7.37-0.55l0.67-0.05l1.27-0.18l1.17-0.27l1.18-0.39l1.08-0.46l1.07-0.57l1.01-0.66l0.95-0.74     l0.44-0.42l0.87-0.8l1.64-1.72l1.54-1.8l1.45-1.9l1.32-1.95l1.22-2.04l1.11-2.1l0.98-2.13l0.41-1.08l0.65-1.7l1.14-3.48l1-3.54     l0.85-3.58l0.35-1.8l0.75-3.85l1.33-7.73l1.17-7.75l1.01-7.77l0.41-3.88l0.53-5.1l-1.9-2.27l2.33-1.82l0.79-9.15l0.65-9.18     l0.52-9.18l0.32-7.77l0.18-7.77l0.04-7.77l-0.09-7.88V25.48l6.84,0h81.72l2.13-2.12l2.12,2.12h111.94l16.08,36.01l14.27-31.95     l1.81-4.06h111.95L414.56,23.35 M38.63,366.82L38.63,366.82 M414.56,20.52l-1.41,1.41l-1.54,1.54H300.49h-1.3l-0.53,1.18     l-1.81,4.06l-12.44,27.86l-14.25-31.92l-0.53-1.18h-1.3H157.21l-1.54-1.54l-1.41-1.41l-1.41,1.41l-1.54,1.54H70.41l-6.84,0l-2,0     v2v36.97v0.01l0,0.01l0.09,7.85l-0.04,7.74l-0.18,7.73l-0.31,7.74l-0.52,9.14l-0.65,9.15l-0.71,8.27l-1.65,1.29l-1.63,1.27     l1.33,1.58l1.36,1.62l-0.45,4.25l-0.4,3.86l-1.01,7.73l-1.17,7.71l-1.33,7.69l-0.74,3.84l-0.34,1.76l-0.83,3.5l-0.98,3.46     l-1.11,3.39l-0.63,1.66l-0.39,1.02l-0.93,2.02l-1.06,2l-1.17,1.94l-1.26,1.86l-1.38,1.82l-1.47,1.72l-1.56,1.63l-0.82,0.76     l-0.39,0.36l-0.81,0.64l-0.87,0.56l-0.91,0.49l-0.93,0.39l-1.01,0.33l-1,0.23l-1.12,0.16l-0.6,0.05l-7.37,0.54l-2.15,0.16     l0.32,2.13l1.1,7.35l5.51,36.6l7.45,51.3l0.24,2.88l0.25,3.05l0.39,6.45l0.28,6.48l0.18,6.48l0.07,6.48l-0.02,7.11l-0.13,7.1     l-0.23,7.11l-0.34,7.07l-0.79,13.86l-0.06,1.01l-1.64,1.44l-1.5,1.32l1.32,1.5l1.44,1.63l-0.44,6.94l-0.95,13.84l-1.03,13.83     l-1.02,12.64l-1.1,12.61h0l-1.18,12.63l-1.26,12.65l-0.01,0.12l0,0.04l0,0.04l-0.01,0.12l-2.14,32.84L25,522.92l0,0.01l0,0.01     l-0.01,0.22l0,0.05l0,0.05l0,0.23l0,0.01v0.01v41.3v2h2H535l6.84,0l2,0v-2V523.5v-0.01l0-0.01l0-0.23l0-0.05l0-0.05l-0.01-0.22     l0-0.01l0-0.01l-4.29-65.71l-0.01-0.11l0-0.04l0-0.04l-0.01-0.11l-1.27-12.66l-1.18-12.62l-1.1-12.61l-1.02-12.65l-1.03-13.84     l-0.95-13.84l-0.44-6.92l1.44-1.63l1.32-1.5l-1.5-1.32l-1.63-1.44l-0.07-1.03l-0.79-13.85l-0.34-7.08l-0.23-7.11l-0.13-7.1     l-0.02-7.11l0.07-6.48l0.18-6.48l0.28-6.48l0.39-6.45l0.25-3.05l0.24-2.88l7.46-51.31l5.5-36.59l1.1-7.35l0.32-2.13l-2.15-0.16     l-7.36-0.55l-0.6-0.05l-1.12-0.16l-1-0.23l-1.01-0.33l-0.93-0.39l-0.91-0.49l-0.86-0.56l-0.81-0.64l-0.38-0.36l-0.83-0.77     l-1.56-1.63l-1.47-1.72l-1.39-1.82l-1.26-1.86l-1.17-1.94l-1.06-2l-0.93-2.02l-0.39-1.02l-0.63-1.66l-1.11-3.4l-0.98-3.46     l-0.83-3.5l-0.34-1.76l-0.74-3.83l-1.33-7.69l-1.17-7.71l-1.01-7.73l-0.4-3.86l-0.45-4.26l1.35-1.61l1.33-1.58l-1.63-1.28     l-1.65-1.29l-0.71-8.27l-0.65-9.15l-0.52-9.14l-0.31-7.74l-0.18-7.73l-0.04-7.74l0.09-7.85l0-0.01v-0.01V25.48v-2h-2h-87.72     l-1.54-1.54L414.56,20.52L414.56,20.52z"/>
			<g fill="#000000 icc-named-color(ASGCOLORS, BLACK)">
				<path fill="#6D6E71 icc-named-color(ASGCOLORS, LASER)" d="M717.57,1439.21l-2.54-2.54l-78.69-0.01l-2.54,2.54l-2.54-2.54l-21.97-0.01l-5-0.17l-5.03-0.35      l-4.99-0.52l-4.97-0.69l-4.93-0.86l-4.9-1.03l-4.9-1.21l-4.43-1.26l-3.99-1.32l-3.93-1.49l-3.84-1.64l-3.79-1.81l-3.69-1.96      l-3.62-2.13l-3.44-2.22l-2.42-1.67l4.04-5.94l-4.04-5.94l2.59-1.79l3.55-2.28l3.6-2.11l3.7-1.96l3.79-1.8l3.85-1.63l3.92-1.47      l3.98-1.3l4.38-1.23l4.89-1.2l6.11-1.23l3.73-0.64l4.96-0.68l5-0.51l5.01-0.34l5.02-0.17l21.71,0l2.54-2.54l2.54,2.54      l78.68-0.01l2.54-2.54l2.54,2.54l78.69,0.01l2.54-2.54l2.54,2.54l21.97,0.01l4.93,0.17l5.08,0.35l5,0.52l4.96,0.69l4.95,0.87      l4.92,1.03l4.86,1.2l4.48,1.27l3.96,1.31l3.91,1.48l3.87,1.66l3.78,1.81l3.69,1.96l3.61,2.13l3.46,2.24l2.4,1.66l-4.02,5.97      l4.02,5.91l-2.59,1.79l-3.54,2.27l-3.63,2.12l-3.75,1.98l-3.72,1.77l-3.86,1.64l-3.91,1.47l-4.02,1.31l-4.38,1.23l-4.87,1.19      l-4.92,1.02l-4.98,0.86l-4.94,0.68l-4.99,0.51l-4.99,0.34l-5.01,0.17l-21.73,0l-2.54,2.54l-2.54-2.54l-78.68,0.01      L717.57,1439.21z M635.52,1434.65l80.34,0.01l1.71,1.71l1.71-1.71l80.34-0.01l1.71,1.71l1.71-1.71l22.75-0.01l4.96-0.17      l4.91-0.34l4.92-0.51l4.9-0.68l4.89-0.85l4.85-1.02l4.78-1.18l4.41-1.25l3.88-1.29l3.83-1.45l3.78-1.62l3.69-1.77l3.64-1.94      l3.53-2.08l4.16-2.72l-3.66-5.38l3.67-5.45l-0.94-0.65l-3.44-2.21l-3.56-2.08l-3.64-1.93l-3.69-1.75l-3.78-1.61l-3.83-1.44      l-3.9-1.28l-4.34-1.22l-4.79-1.17l-4.86-1.01l-4.87-0.84l-4.91-0.68l-4.91-0.5l-4.94-0.34l-4.93-0.16l-22.54,0l-1.71-1.71      l-1.71,1.71l-80.34-0.01l-1.71-1.71l-1.71,1.71l-80.34,0.01l-1.71-1.71l-1.71,1.71l-22.74,0.01l-4.94,0.17l-4.95,0.34      l-4.91,0.51l-4.92,0.68l-4.86,0.85l-4.84,1.02l-4.82,1.19l-4.35,1.24l-3.91,1.29l-3.85,1.46l-3.75,1.61l-3.7,1.77l-3.64,1.94      l-3.54,2.08l-4.16,2.72l3.69,5.42l-3.69,5.42l0.94,0.65l3.45,2.22l3.53,2.06l3.63,1.92l3.72,1.77l3.77,1.6l3.85,1.44l3.89,1.27      l4.32,1.22l4.81,1.18l4.84,1.01l4.89,0.85l4.88,0.67l4.92,0.5l4.95,0.34l4.94,0.17l22.52,0l1.71,1.71L635.52,1434.65z"/>
			</g>
		</g>
		
	</g>
</switch>

<text font-size="10px" x="611.88" y="1186.69" fill="#636671 icc-named-color(ASGCOLORS, LABELGREY)" font-family="'Regular'" id="style-name" stroke="#636671 icc-named-color(ASGCOLORS, LABELGREY)">preview-228103-l</text></svg>